<?xml version="1.0" encoding="UTF-8"?>
<svg width="119px" height="21px" viewBox="0 0 119 21" version="1.1" xmlns="http://www.w3.org/2000/svg" xmlns:xlink="http://www.w3.org/1999/xlink">
    <!-- Generator: Sketch 45.2 (43514) - http://www.bohemiancoding.com/sketch -->
    <title>logo</title>
    <desc>Created with Sketch.</desc>
    <defs>
        <polygon id="path-1" points="28.9007412 0.00228647005 28.9007412 20.1982102 0.139036168 20.1982102 0.139036168 0.00228647005"></polygon>
        <polygon id="path-3" points="0.0149185733 20.8249639 20.8398824 20.8249639 20.8398824 1.79525551e-05 0.0149185733 1.79525551e-05"></polygon>
        <polygon id="path-5" points="0.158503109 20.8249639 20.983467 20.8249639 20.983467 1.79525551e-05 0.158503109 1.79525551e-05 0.158503109 20.8249639"></polygon>
    </defs>
    <g id="Symbols" stroke="none" stroke-width="1" fill="none" fill-rule="evenodd">
        <g id="Header" transform="translate(-148.000000, -30.000000)">
            <g id="logo">
                <g transform="translate(148.000000, 30.000000)">
                    <g id="Group-3" transform="translate(89.942301, 0.359051)">
                        <mask id="mask-2" fill="white">
                            <use xlink:href="#path-1"></use>
                        </mask>
                        <g id="Clip-2"></g>
                        <path d="M26.7462731,0.0897986804 C25.4714621,-0.233347311 24.1431526,0.359087006 23.5507183,1.52600309 L15.6695466,16.4625289 C15.4541159,16.8933902 15.0053021,17.1626785 14.5204035,17.144726 C14.0358641,17.144726 13.5870502,16.8933902 13.3716195,16.4625289 L5.50840042,1.54395564 C4.77234567,0.161608901 3.06685293,-0.376967751 1.66655364,0.359087006 C0.733020776,0.843805993 0.140586459,1.81324397 0.140586459,2.87244472 L0.140586459,18.7784085 C0.104681349,19.5322363 0.69693614,20.1605757 1.45112298,20.1966604 C2.20513029,20.2325655 2.83346972,19.6401311 2.86937483,18.8861238 L2.86937483,18.7784085 L2.86937483,2.85449216 C2.86937483,2.8006345 2.85124275,2.71087172 2.94100552,2.69291916 C3.0307683,2.67496661 3.04890038,2.76472939 3.08480549,2.8006345 L10.9480246,17.7192078 C11.9892728,19.6939888 14.4128677,20.4479961 16.3876488,19.4067479 C17.105751,19.0297443 17.6981853,18.43731 18.075189,17.7192078 L25.9384081,2.8006345 C25.9563606,2.74677683 25.9922658,2.67496661 26.0820285,2.69291916 C26.1717913,2.71087172 26.1538387,2.8006345 26.1538387,2.85449216 L26.1538387,18.7604559 C26.1358862,19.5144633 26.728141,20.1428027 27.4823278,20.1787078 C28.2363351,20.1966604 28.8646746,19.6219991 28.9005797,18.8681713 L28.9005797,18.7604559 L28.9005797,2.85449216 C28.9185322,1.54395564 28.0209045,0.394992117 26.7462731,0.0897986804" id="Fill-1" fill="#FFFFFF" mask="url(#mask-2)"></path>
                    </g>
                    <path d="M23.0300583,0.646256077 C22.3658137,0.305157531 21.5399962,0.556493302 21.1988976,1.22073784 L12.5816712,17.5575629 C12.4200982,17.8807089 12.1687624,18.0602345 11.9174267,18.0602345 C11.6660909,18.0602345 11.4147551,17.8807089 11.2531821,17.5575629 L2.63595571,1.22073784 C2.34871483,0.520588192 1.54084985,0.197442201 0.840700201,0.484683082 C0.140550554,0.771923963 -0.182595438,1.57978894 0.104645443,2.27993859 C0.140550554,2.35174881 0.176455664,2.42355903 0.212360774,2.49536925 L8.82958721,18.8321944 C9.47587919,20.0529681 10.6248427,20.7890229 11.9174267,20.7890229 C13.2100106,20.7890229 14.3589742,20.0529681 15.0052661,18.8321944 L23.6224926,2.49536925 C23.9635911,1.83112471 23.7122554,1.00530718 23.0300583,0.646256077" id="Fill-4" fill="#FFFFFF"></path>
                    <g id="Group-8" transform="translate(22.979270, 0.000000)">
                        <mask id="mask-4" fill="white">
                            <use xlink:href="#path-3"></use>
                        </mask>
                        <g id="Clip-7"></g>
                        <path d="M2.86937483,9.04810571 C3.62338214,4.86516038 7.62680192,2.1004669 11.8097473,2.87242676 C14.9514444,3.44690853 17.428897,5.90640857 17.9854262,9.04810571 L2.86937483,9.04810571 Z M10.4274005,1.79525551e-05 C4.68258289,1.79525551e-05 0.0149185733,4.66768227 0.0149185733,10.4124999 C0.0149185733,16.1573175 4.68258289,20.8249818 10.4274005,20.8249818 C13.7127181,20.8249818 16.8185101,19.26293 18.7753386,16.6240839 C19.2600576,16.0496022 19.1882474,15.1878795 18.6137656,14.7031606 C18.0392839,14.2184416 17.1775612,14.2902518 16.6928422,14.864554 C16.6748897,14.8826861 16.6569371,14.9185912 16.6389846,14.9365438 L16.6030795,14.9904014 C14.0717692,18.4013869 9.26048443,19.1015365 5.84949897,16.5700468 C4.28762668,15.4031307 3.22842593,13.6976379 2.86937483,11.7768941 L19.4754883,11.7768941 C20.2294956,11.7768941 20.8398824,11.1665072 20.8398824,10.4124999 C20.8398824,4.66768227 16.1901707,1.79525551e-05 10.4274005,1.79525551e-05 L10.4274005,1.79525551e-05 Z" id="Fill-6" fill="#FFFFFF" mask="url(#mask-4)"></path>
                    </g>
                    <g id="Group-11" transform="translate(45.060913, 0.000000)">
                        <mask id="mask-6" fill="white">
                            <use xlink:href="#path-5"></use>
                        </mask>
                        <g id="Clip-10"></g>
                        <path d="M3.01295936,9.04810571 C3.76696668,4.86516038 7.77038646,2.1004669 11.9533318,2.87242676 C15.0950289,3.44690853 17.5724815,5.90640857 18.1290107,9.04810571 L3.01295936,9.04810571 Z M20.983467,10.4124999 C20.983467,4.66768227 16.3158027,1.79525551e-05 10.570985,1.79525551e-05 C4.82616743,1.79525551e-05 0.158503109,4.66768227 0.158503109,10.4124999 C0.158503109,16.1573175 4.82616743,20.8249818 10.570985,20.8249818 C13.8563026,20.8249818 16.9620947,19.26293 18.9189232,16.6240839 C19.3497845,16.0136971 19.206164,15.1519744 18.5957772,14.7211131 C18.0033428,14.2902518 17.1775253,14.4157401 16.7287114,14.9904014 C14.1974012,18.4013869 9.38611641,19.1015365 5.97513095,16.5700468 C4.41325866,15.4031307 3.35405791,13.6976379 2.99500681,11.7768941 L19.6190728,11.7768941 C20.3730801,11.7768941 20.983467,11.1665072 20.983467,10.4124999 L20.983467,10.4124999 Z" id="Fill-9" fill="#FFFFFF" mask="url(#mask-6)"></path>
                    </g>
                    <path d="M79.8320143,2.38768982 C79.2036749,1.20282119 78.0724844,0.484718987 76.8339376,0.484718987 C75.5950318,0.484718987 74.4642003,1.20282119 73.8358609,2.38768982 L65.3261703,18.4911317 C64.9493462,19.1553763 65.2006819,19.9811938 65.8469739,20.3581974 C66.5112184,20.7352011 67.3368564,20.4838653 67.7140396,19.8375733 L67.7497652,19.7837157 L70.0835974,15.3494346 L80.1192552,15.3494346 C80.8551304,15.3494346 81.4656968,14.7390477 81.4656968,14.002993 C81.4656968,13.2669382 80.8551304,12.6565513 80.1192552,12.6565513 L71.5020287,12.6565513 L76.2415033,3.68027379 C76.3851237,3.39303291 76.6005544,3.23145991 76.8339376,3.23145991 C77.0673208,3.23145991 77.2646194,3.39303291 77.4263719,3.68027379 L85.935883,19.7837157 C86.3128867,20.4479602 87.1385247,20.6813434 87.8027692,20.3043398 C88.4311087,19.9452887 88.6826239,19.1553763 88.359478,18.5090843 L79.8320143,2.38768982 Z" id="Fill-12" fill="#FFFFFF"></path>
                </g>
            </g>
        </g>
    </g>
</svg>