<?xml version="1.0" encoding="UTF-8"?>
<svg width="30px" height="30px" viewBox="0 0 30 30" version="1.1" xmlns="http://www.w3.org/2000/svg" xmlns:xlink="http://www.w3.org/1999/xlink">
    <!-- Generator: Sketch 45.2 (43514) - http://www.bohemiancoding.com/sketch -->
    <title>edit</title>
    <desc>Created with Sketch.</desc>
    <defs></defs>
    <g id="Symbols" stroke="none" stroke-width="1" fill="none" fill-rule="evenodd">
        <g id="edit">
            <g>
                <path d="M15,0 C6.729,0 0,6.729 0,15 C0,23.271 6.729,30 15,30 C23.271,30 30,23.271 30,15 C30,6.729 23.271,0 15,0 Z M15,29 C7.2805,29 1,22.7195 1,15 C1,7.2805 7.2805,1 15,1 C22.7195,1 29,7.2805 29,15 C29,22.7195 22.7195,29 15,29 Z" id="Shape" fill="#7ED321" fill-rule="nonzero"></path>
                <path d="M12.2861962,11.8939587 L10.5878745,13.5922804 C9.96217706,14.2179779 9.33290417,14.8436753 8.71078211,15.4765236 C8.56419013,15.626691 8.45335229,15.8269142 8.41044732,16.023562 C8.18519623,17.0568567 7.96709597,18.0901514 7.74899571,19.1234461 L7.62743163,19.6955123 C7.570225,19.9743946 7.6453087,20.2532769 7.83480565,20.4427739 C7.98139763,20.5893659 8.18519623,20.6716004 8.39972108,20.6716004 C8.46050312,20.6716004 8.52128516,20.6644496 8.5820672,20.6537233 L9.21134009,20.521433 C10.212456,20.3104836 11.2171474,20.0959587 12.2182634,19.8885847 C12.4506653,19.8385289 12.6473131,19.7348419 12.8153575,19.5667974 C15.6256331,16.7529465 18.4359086,13.942671 21.2461841,11.1359709 C21.4535581,10.9285969 21.5679714,10.6818933 21.5965747,10.3779831 C21.6001501,10.3279273 21.5965747,10.2778715 21.5858484,10.2313911 C21.5679714,10.1598828 21.5536697,10.0847991 21.5357926,10.0132908 C21.4964631,9.83094471 21.4535581,9.62357069 21.3677482,9.4233475 L21.3677482,9.4233475 C20.8421623,8.22200835 19.9697612,7.36390896 18.7755729,6.88122805 C18.5360202,6.78469187 18.2821658,6.75251314 18.0604901,6.72390983 L17.999708,6.716759 C17.6779208,6.67742944 17.3847368,6.78469187 17.1308824,7.04212169 C15.521946,8.65820888 13.9022834,10.2778715 12.2861962,11.8939587 Z M17.8817194,7.57843381 C17.8888702,7.57843381 17.8924456,7.57843381 17.8995964,7.57843381 L17.9603785,7.58558463 C18.1463,7.60703712 18.3179199,7.6284896 18.4537856,7.68569623 C19.4262983,8.07899179 20.1413811,8.77977296 20.5740062,9.76658726 C20.624062,9.88100051 20.6562407,10.0275925 20.6884195,10.1813353 C20.6991457,10.2385419 20.7134474,10.2957486 20.7241736,10.3529552 C20.709872,10.4173126 20.6848441,10.4602176 20.6347883,10.506698 C17.8209373,13.3133981 15.0106618,16.127249 12.2003863,18.9375245 C12.1539059,18.9840049 12.111001,19.0054574 12.0466435,19.019759 C11.0419521,19.2307085 10.0408362,19.4416579 9.0361448,19.6526074 L8.50698351,19.7634452 L8.6070951,19.2950659 C8.82519536,18.2653467 9.04329563,17.232052 9.2649713,16.2023327 C9.27212213,16.170154 9.30072544,16.1200982 9.33290417,16.084344 C9.95502623,15.4550712 10.5771483,14.8293737 11.2028458,14.2072516 L12.9011675,12.5089299 C14.5208301,10.8892673 16.1404927,9.26960469 17.7565799,7.64636668 C17.8245127,7.58916005 17.8566915,7.57843381 17.8817194,7.57843381 Z" id="Shape" fill="#7ED321" fill-rule="nonzero"></path>
                <path d="M8.12954199,21.5 L20.6242808,21.5" id="Line" stroke="#7ED321" fill="#D8D8D8" stroke-linecap="square"></path>
            </g>
        </g>
    </g>
</svg>