<?xml version="1.0" encoding="UTF-8"?>
<svg width="30px" height="30px" viewBox="0 0 30 30" version="1.1" xmlns="http://www.w3.org/2000/svg" xmlns:xlink="http://www.w3.org/1999/xlink">
    <!-- Generator: Sketch 45.2 (43514) - http://www.bohemiancoding.com/sketch -->
    <title>add</title>
    <desc>Created with Sketch.</desc>
    <defs></defs>
    <g id="Symbols" stroke="none" stroke-width="1" fill="none" fill-rule="evenodd">
        <g id="add" fill-rule="nonzero" fill="#7ED321">
            <g id="play">
                <path d="M15,0 C6.729,0 0,6.729 0,15 C0,23.271 6.729,30 15,30 C23.271,30 30,23.271 30,15 C30,6.729 23.271,0 15,0 Z M15,29 C7.2805,29 1,22.7195 1,15 C1,7.2805 7.2805,1 15,1 C22.7195,1 29,7.2805 29,15 C29,22.7195 22.7195,29 15,29 Z" id="Shape"></path>
            </g>
            <path d="M22,13.9230769 L15.3653846,13.9230769 L15.3653846,7.57692308 C15.3653846,7.25788462 15.1069231,7 14.7884615,7 C14.47,7 14.2115385,7.25788462 14.2115385,7.57692308 L14.2115385,13.9230769 L7.57692308,13.9230769 C7.25846154,13.9230769 7,14.1809615 7,14.5 C7,14.8190385 7.25846154,15.0769231 7.57692308,15.0769231 L14.2115385,15.0769231 L14.2115385,22 C14.2115385,22.3190385 14.47,22.5769231 14.7884615,22.5769231 C15.1069231,22.5769231 15.3653846,22.3190385 15.3653846,22 L15.3653846,15.0769231 L22,15.0769231 C22.3184615,15.0769231 22.5769231,14.8190385 22.5769231,14.5 C22.5769231,14.1809615 22.3184615,13.9230769 22,13.9230769 Z" id="Shape"></path>
        </g>
    </g>
</svg>