<?xml version="1.0" encoding="UTF-8"?>
<svg width="31px" height="30px" viewBox="0 0 31 30" version="1.1" xmlns="http://www.w3.org/2000/svg" xmlns:xlink="http://www.w3.org/1999/xlink">
    <!-- Generator: Sketch 45.2 (43514) - http://www.bohemiancoding.com/sketch -->
    <title>refresh</title>
    <desc>Created with Sketch.</desc>
    <defs></defs>
    <g id="Symbols" stroke="none" stroke-width="1" fill="none" fill-rule="evenodd">
        <g id="refresh" fill-rule="nonzero" fill="#7ED321">
            <g transform="translate(0.500000, 0.000000)">
                <path d="M15,0 C6.72923077,0 0,6.72865385 0,15 C0,23.2713462 6.72923077,30 15,30 C23.2707692,30 30,23.2713462 30,15 C30,6.72865385 23.2707692,0 15,0 Z M15,28.8461538 C7.36557692,28.8461538 1.15384615,22.6344231 1.15384615,15 C1.15384615,7.36557692 7.36557692,1.15384615 15,1.15384615 C22.6344231,1.15384615 28.8461538,7.36557692 28.8461538,15 C28.8461538,22.6344231 22.6344231,28.8461538 15,28.8461538 Z" id="Shape"></path>
                <g id="001-circular-arrow" transform="translate(7.000000, 7.000000)">
                    <path d="M8.32122347,15.4217272 C5.08030533,15.4217272 2.19612275,13.3639005 1.14350851,10.3008615 C1.06531989,10.0746032 1.18602357,9.82733168 1.41277056,9.75012042 C1.63854019,9.67193181 1.88581168,9.79214681 1.96351162,10.0193825 C2.89591087,12.7320388 5.45121258,14.5538335 8.32171214,14.5538335 C12.0283412,14.5538335 15.0434897,11.538685 15.0434897,7.83254461 C15.0434897,7.59309198 15.2379839,7.39810912 15.4774366,7.39810912 C15.7168892,7.39810912 15.9108947,7.5926033 15.9108947,7.83254461 C15.910406,12.0171016 12.5062691,15.4217272 8.32122347,15.4217272 Z" id="Shape"></path>
                    <path d="M1.16598774,8.26649143 C0.927023779,8.26649143 0.732529597,8.07297461 0.732529597,7.83303329 C0.732529597,3.64896498 4.13715515,0.244339425 8.32122347,0.244339425 C11.5611642,0.244339425 14.4453468,2.30118871 15.4989384,5.36325038 C15.5766384,5.58950869 15.4564234,5.83678019 15.2296764,5.91496881 C15.0024407,5.99218006 14.7561466,5.87196507 14.6784466,5.64570676 C13.7455587,2.93305046 11.1907457,1.11125571 8.32073479,1.11125571 C4.61459438,1.11125571 1.5989572,4.12738157 1.5989572,7.83352197 C1.59944588,8.07248593 1.40544037,8.26649143 1.16598774,8.26649143 Z" id="Shape"></path>
                    <path d="M15.0718331,6.02638758 C15.029318,6.02638758 14.9853369,6.01954608 14.9423332,6.00635175 L11.9306055,5.06320157 C11.7023924,4.99136578 11.5753359,4.74800371 11.646683,4.51930201 C11.7180302,4.29108899 11.9623696,4.16403248 12.1896052,4.23489092 L14.8182088,5.05880346 L15.8058287,2.5831564 C15.8947683,2.36080753 16.1474153,2.25183214 16.3692755,2.34174905 C16.5916243,2.4306886 16.7005997,2.68235821 16.6116602,2.90470709 L15.4740158,5.75370479 C15.4070668,5.92132163 15.2448254,6.02638758 15.0718331,6.02638758 Z" id="Shape"></path>
                    <path d="M0.43345814,13.3565703 C0.380192146,13.3565703 0.325460114,13.3463081 0.273171477,13.3248062 C0.0508226004,13.2358667 -0.0576641044,12.9841971 0.0312754464,12.7618482 L1.16843113,9.91285048 C1.25248389,9.70174122 1.48411767,9.5912998 1.7006024,9.65971484 L4.71233015,10.602865 C4.94103186,10.6742121 5.06759968,10.9175742 4.99625257,11.1457872 C4.92490545,11.3749776 4.68105471,11.5020341 4.45333036,11.4301983 L1.82521551,10.6072631 L0.836618192,13.0829102 C0.768691832,13.2524817 0.605473096,13.3565703 0.43345814,13.3565703 Z" id="Shape"></path>
                </g>
            </g>
        </g>
    </g>
</svg>