<?xml version="1.0" encoding="UTF-8"?>
<svg width="30px" height="30px" viewBox="0 0 30 30" version="1.1" xmlns="http://www.w3.org/2000/svg" xmlns:xlink="http://www.w3.org/1999/xlink">
    <!-- Generator: Sketch 45.2 (43514) - http://www.bohemiancoding.com/sketch -->
    <title>play</title>
    <desc>Created with Sketch.</desc>
    <defs></defs>
    <g id="Symbols" stroke="none" stroke-width="1" fill="none" fill-rule="evenodd">
        <g id="play" fill-rule="nonzero" fill="#7ED321">
            <g id="Shape">
                <path d="M22.7815,14.587 L11.7815,7.087 C11.628,6.983 11.43,6.9715 11.266,7.058 C11.1025,7.1445 11,7.3145 11,7.5 L11,22.5 C11,22.6855 11.1025,22.8555 11.2665,22.942 C11.3395,22.981 11.42,23 11.5,23 C11.5985,23 11.697,22.9705 11.7815,22.913 L22.7815,15.413 C22.918,15.32 23,15.1655 23,15 C23,14.8345 22.918,14.68 22.7815,14.587 Z M12,21.5535 L12,8.4465 L21.6125,15 L12,21.5535 Z"></path>
                <path d="M15,0 C6.729,0 0,6.729 0,15 C0,23.271 6.729,30 15,30 C23.271,30 30,23.271 30,15 C30,6.729 23.271,0 15,0 Z M15,29 C7.2805,29 1,22.7195 1,15 C1,7.2805 7.2805,1 15,1 C22.7195,1 29,7.2805 29,15 C29,22.7195 22.7195,29 15,29 Z"></path>
            </g>
        </g>
    </g>
</svg>