<?xml version="1.0" encoding="UTF-8"?>
<svg width="40px" height="40px" viewBox="0 0 40 40" version="1.1" xmlns="http://www.w3.org/2000/svg" xmlns:xlink="http://www.w3.org/1999/xlink">
    <!-- Generator: Sketch 45.2 (43514) - http://www.bohemiancoding.com/sketch -->
    <title>backup active</title>
    <desc>Created with Sketch.</desc>
    <defs></defs>
    <g id="Symbols" stroke="none" stroke-width="1" fill="none" fill-rule="evenodd">
        <g id="backup-active">
            <path d="M20,0 C8.97230769,0 0,8.97153846 0,20 C0,31.0284615 8.97230769,40 20,40 C31.0276923,40 40,31.0284615 40,20 C40,8.97153846 31.0276923,0 20,0 Z M20,38.4615385 C9.82076923,38.4615385 1.53846154,30.1792308 1.53846154,20 C1.53846154,9.82076923 9.82076923,1.53846154 20,1.53846154 C30.1792308,1.53846154 38.4615385,9.82076923 38.4615385,20 C38.4615385,30.1792308 30.1792308,38.4615385 20,38.4615385 Z" id="Shape" fill="#7ED321" fill-rule="nonzero"></path>
            <g id="Path-2164-+-Line" transform="translate(20.000000, 19.500000) scale(1, -1) translate(-20.000000, -19.500000) translate(15.000000, 11.000000)" stroke-linecap="round" stroke="#7ED321" stroke-linejoin="round">
                <polyline id="Line-50" points="9.23286229 5.35400302 4.63353017 0.754670903 0.0882996372 5.29990144"></polyline>
                <path d="M4.58150544,1.29075272 L4.58150544,16.6259593" id="Line-49"></path>
            </g>
        </g>
    </g>
</svg>