<?xml version="1.0" encoding="UTF-8"?>
<svg width="40px" height="40px" viewBox="0 0 40 40" version="1.1" xmlns="http://www.w3.org/2000/svg" xmlns:xlink="http://www.w3.org/1999/xlink">
    <!-- Generator: Sketch 45.2 (43514) - http://www.bohemiancoding.com/sketch -->
    <title>delete active</title>
    <desc>Created with Sketch.</desc>
    <defs></defs>
    <g id="Symbols" stroke="none" stroke-width="1" fill="none" fill-rule="evenodd">
        <g id="delete-active" fill-rule="nonzero" fill="#7ED321">
            <g id="+-">
                <path d="M20,0 C8.97230769,0 0,8.97153846 0,20 C0,31.0284615 8.97230769,40 20,40 C31.0276923,40 40,31.0284615 40,20 C40,8.97153846 31.0276923,0 20,0 Z M20,38.4615385 C9.82076923,38.4615385 1.53846154,30.1792308 1.53846154,20 C1.53846154,9.82076923 9.82076923,1.53846154 20,1.53846154 C30.1792308,1.53846154 38.4615385,9.82076923 38.4615385,20 C38.4615385,30.1792308 30.1792308,38.4615385 20,38.4615385 Z" id="Shape"></path>
            </g>
            <g id="Group" transform="translate(13.000000, 13.000000)">
                <path d="M0.942034801,14.2411044 C0.75862571,14.2411044 0.575216619,14.1713707 0.43574929,14.0309482 C0.155859375,13.7510582 0.155859375,13.2963565 0.43574929,13.0164666 L13.0174219,0.434794034 C13.2973118,0.154904119 13.7510582,0.154904119 14.0309482,0.434794034 C14.3108381,0.714683949 14.3108381,1.1684304 14.0309482,1.44832031 L1.44832031,14.0309482 C1.30885298,14.1713707 1.12544389,14.2411044 0.942034801,14.2411044 Z" id="Shape"></path>
                <path d="M13.5237074,14.2411044 C13.3402983,14.2411044 13.1568892,14.1713707 13.0174219,14.0309482 L0.434794034,1.44927557 C0.154904119,1.16938565 0.154904119,0.715639205 0.434794034,0.43574929 C0.714683949,0.155859375 1.1684304,0.155859375 1.44832031,0.43574929 L14.0299929,13.0174219 C14.3098828,13.2973118 14.3098828,13.7520135 14.0299929,14.0319034 C13.8905256,14.1713707 13.7071165,14.2411044 13.5237074,14.2411044 Z" id="Shape"></path>
            </g>
        </g>
    </g>
</svg>