<?xml version="1.0" encoding="UTF-8"?>
<svg width="31px" height="30px" viewBox="0 0 31 30" version="1.1" xmlns="http://www.w3.org/2000/svg" xmlns:xlink="http://www.w3.org/1999/xlink">
    <!-- Generator: Sketch 45.2 (43514) - http://www.bohemiancoding.com/sketch -->
    <title>disk restore</title>
    <desc>Created with Sketch.</desc>
    <defs></defs>
    <g id="z" stroke="none" stroke-width="1" fill="none" fill-rule="evenodd">
        <g id="disk-restore">
            <g id="refresh" transform="translate(0.500000, 0.000000)" fill-rule="nonzero" fill="#7ED321">
                <path d="M15,0 C6.72923077,0 0,6.72865385 0,15 C0,23.2713462 6.72923077,30 15,30 C23.2707692,30 30,23.2713462 30,15 C30,6.72865385 23.2707692,0 15,0 Z M15,28.8461538 C7.36557692,28.8461538 1.15384615,22.6344231 1.15384615,15 C1.15384615,7.36557692 7.36557692,1.15384615 15,1.15384615 C22.6344231,1.15384615 28.8461538,7.36557692 28.8461538,15 C28.8461538,22.6344231 22.6344231,28.8461538 15,28.8461538 Z" id="Shape"></path>
            </g>
            <rect id="Rectangle-14" stroke="#7ED321" stroke-width="0.5" x="6.25" y="12.25" width="18.5" height="5.5"></rect>
            <circle id="Oval-8" stroke="#7ED321" stroke-width="0.5" cx="9" cy="15" r="1"></circle>
            <g id="Group" transform="translate(5.000000, 5.000000)">
                <path d="M18.6598774,5.2725524 C17.0739751,2.70837324 14.2364935,1 11,1 C7.79422895,1 4.97993055,2.67609365 3.38562282,5.19976293" id="Oval-9" stroke="#7ED321" stroke-linecap="round"></path>
                <g id="001-circular-arrow" transform="translate(4.259449, 4.744411) scale(-1, 1) rotate(149.000000) translate(-4.259449, -4.744411) translate(1.259449, 1.744411)" fill-rule="nonzero" fill="#7ED321">
                    <path d="M0.918420065,5.21373764 C0.865154071,5.21373764 0.810422039,5.20347539 0.758133402,5.18197352 C0.535784526,5.09303397 0.427297821,4.84136436 0.516237372,4.61901548 L1.65339306,1.77001778 C1.73744582,1.55890852 1.96907959,1.4484671 2.18556432,1.51688214 L5.19729208,2.46003232 C5.42599378,2.53137943 5.5525616,2.7747415 5.48121449,3.00295452 C5.40986738,3.2321449 5.16601663,3.3592014 4.93829229,3.28736561 L2.31017743,2.46443043 L1.32158012,4.94007748 C1.25365376,5.10964905 1.09043502,5.21373764 0.918420065,5.21373764 Z" id="Shape" transform="translate(2.993131, 3.355204) rotate(13.000000) translate(-2.993131, -3.355204) "></path>
                </g>
            </g>
            <g id="Group-Copy" transform="translate(17.500000, 20.500000) scale(-1, -1) translate(-17.500000, -20.500000) translate(8.000000, 16.000000)">
                <path d="M18.6598774,5.2725524 C17.0739751,2.70837324 14.2364935,1 11,1 C7.79422895,1 4.97993055,2.67609365 3.38562282,5.19976293" id="Oval-9" stroke="#7ED321" stroke-linecap="round"></path>
                <g id="001-circular-arrow" transform="translate(4.259449, 4.744411) scale(-1, 1) rotate(149.000000) translate(-4.259449, -4.744411) translate(1.259449, 1.744411)" fill-rule="nonzero" fill="#7ED321">
                    <path d="M0.918420065,5.21373764 C0.865154071,5.21373764 0.810422039,5.20347539 0.758133402,5.18197352 C0.535784526,5.09303397 0.427297821,4.84136436 0.516237372,4.61901548 L1.65339306,1.77001778 C1.73744582,1.55890852 1.96907959,1.4484671 2.18556432,1.51688214 L5.19729208,2.46003232 C5.42599378,2.53137943 5.5525616,2.7747415 5.48121449,3.00295452 C5.40986738,3.2321449 5.16601663,3.3592014 4.93829229,3.28736561 L2.31017743,2.46443043 L1.32158012,4.94007748 C1.25365376,5.10964905 1.09043502,5.21373764 0.918420065,5.21373764 Z" id="Shape" transform="translate(2.993131, 3.355204) rotate(13.000000) translate(-2.993131, -3.355204) "></path>
                </g>
            </g>
        </g>
    </g>
</svg>