<?xml version="1.0" encoding="UTF-8"?>
<svg width="31px" height="30px" viewBox="0 0 31 30" version="1.1" xmlns="http://www.w3.org/2000/svg" xmlns:xlink="http://www.w3.org/1999/xlink">
    <!-- Generator: Sketch 45.2 (43514) - http://www.bohemiancoding.com/sketch -->
    <title>restore</title>
    <desc>Created with Sketch.</desc>
    <defs></defs>
    <g id="z" stroke="none" stroke-width="1" fill="none" fill-rule="evenodd">
        <g id="restore" fill-rule="nonzero">
            <g id="refresh" transform="translate(0.500000, 0.000000)">
                <path d="M15,0 C6.72923077,0 0,6.72865385 0,15 C0,23.2713462 6.72923077,30 15,30 C23.2707692,30 30,23.2713462 30,15 C30,6.72865385 23.2707692,0 15,0 Z M15,28.8461538 C7.36557692,28.8461538 1.15384615,22.6344231 1.15384615,15 C1.15384615,7.36557692 7.36557692,1.15384615 15,1.15384615 C22.6344231,1.15384615 28.8461538,7.36557692 28.8461538,15 C28.8461538,22.6344231 22.6344231,28.8461538 15,28.8461538 Z" id="Shape" fill="#7ED321"></path>
                <path d="M15,7 C10.5889231,7 7,10.5886154 7,15 C7,19.4113846 10.5889231,23 15,23 C19.4110769,23 23,19.4113846 23,15" id="Shape-Copy" stroke="#7ED321" stroke-linecap="round" transform="translate(15.000000, 15.000000) scale(-1, -1) rotate(102.000000) translate(-15.000000, -15.000000) "></path>
                <g id="001-circular-arrow" transform="translate(18.051976, 8.543174) scale(-1, 1) rotate(91.000000) translate(-18.051976, -8.543174) translate(15.051976, 6.043174)" fill="#7ED321">
                    <path d="M0.43345814,4.35657034 C0.380192146,4.35657034 0.325460114,4.34630808 0.273171477,4.32480622 C0.0508226004,4.23586666 -0.0576641044,3.98419706 0.0312754464,3.76184818 L1.16843113,0.912850481 C1.25248389,0.701741218 1.48411767,0.591299798 1.7006024,0.659714837 L4.71233015,1.60286502 C4.94103186,1.67421213 5.06759968,1.9175742 4.99625257,2.14578722 C4.92490545,2.3749776 4.68105471,2.5020341 4.45333036,2.43019831 L1.82521551,1.60726313 L0.836618192,4.08291018 C0.768691832,4.25248175 0.605473096,4.35657034 0.43345814,4.35657034 Z" id="Shape"></path>
                </g>
            </g>
        </g>
    </g>
</svg>