<?xml version="1.0" encoding="UTF-8"?>
<svg width="30px" height="30px" viewBox="0 0 30 30" version="1.1" xmlns="http://www.w3.org/2000/svg" xmlns:xlink="http://www.w3.org/1999/xlink">
    <!-- Generator: Sketch 45.2 (43514) - http://www.bohemiancoding.com/sketch -->
    <title>delete</title>
    <desc>Created with Sketch.</desc>
    <defs></defs>
    <g id="Symbols" stroke="none" stroke-width="1" fill="none" fill-rule="evenodd">
        <g id="delete" fill-rule="nonzero" fill="#7ED321">
            <g>
                <path d="M15,0 C6.729,0 0,6.729 0,15 C0,23.271 6.729,30 15,30 C23.271,30 30,23.271 30,15 C30,6.729 23.271,0 15,0 Z M15,29 C7.2805,29 1,22.7195 1,15 C1,7.2805 7.2805,1 15,1 C22.7195,1 29,7.2805 29,15 C29,22.7195 22.7195,29 15,29 Z" id="Shape"></path>
                <g id="Group" transform="translate(9.000000, 9.000000)">
                    <path d="M1.47854545,11.6036364 C1.33890909,11.6036364 1.19927273,11.5505455 1.09309091,11.4436364 C0.88,11.2305455 0.88,10.8843636 1.09309091,10.6712727 L10.672,1.09236364 C10.8850909,0.879272727 11.2305455,0.879272727 11.4436364,1.09236364 C11.6567273,1.30545455 11.6567273,1.65090909 11.4436364,1.864 L1.864,11.4436364 C1.75781818,11.5505455 1.61818182,11.6036364 1.47854545,11.6036364 Z" id="Shape"></path>
                    <path d="M11.0574545,11.6036364 C10.9178182,11.6036364 10.7781818,11.5505455 10.672,11.4436364 L1.09236364,1.86472727 C0.879272727,1.65163636 0.879272727,1.30618182 1.09236364,1.09309091 C1.30545455,0.88 1.65090909,0.88 1.864,1.09309091 L11.4429091,10.672 C11.656,10.8850909 11.656,11.2312727 11.4429091,11.4443636 C11.3367273,11.5505455 11.1970909,11.6036364 11.0574545,11.6036364 Z" id="Shape"></path>
                </g>
            </g>
        </g>
    </g>
</svg>