<?xml version="1.0" encoding="UTF-8"?>
<svg width="22px" height="24px" viewBox="0 0 22 24" version="1.1" xmlns="http://www.w3.org/2000/svg" xmlns:xlink="http://www.w3.org/1999/xlink">
    <!-- Generator: Sketch 45.2 (43514) - http://www.bohemiancoding.com/sketch -->
    <title>backup icon</title>
    <desc>Created with Sketch.</desc>
    <defs></defs>
    <g id="Symbols" stroke="none" stroke-width="1" fill="none" fill-rule="evenodd">
        <g id="backup-icon" fill-rule="nonzero" fill="#7ED321">
            <g id="database">
                <path d="M21.5006882,3.67013393 C21.001274,1.81997241 17.2841313,0 10.7818271,0 C4.2795228,0 0.561948826,1.81997241 0.06296587,3.67013393 C0.0267389311,3.73353107 0,3.80296604 0,3.88145774 L0,4.09709428 L0,9.05673473 L0,9.27237127 L0,9.48800781 L0,14.2320117 L0,14.4476483 L0,14.6632848 L0,19.8385618 C0,19.908428 0.0185447425,19.9744128 0.0504589506,20.0330659 C0.559792461,22.1441477 5.11662385,23.7200195 10.7818271,23.7200195 C16.4340921,23.7200195 20.9835918,22.1506168 21.509745,20.047298 C21.5442468,19.9856259 21.5636541,19.9144659 21.5636541,19.8385618 L21.5636541,14.6632848 L21.5636541,14.4476483 L21.5636541,14.2320117 L21.5636541,9.48800781 L21.5636541,9.27237127 L21.5636541,9.05673473 L21.5636541,4.09709428 L21.5636541,3.88145774 C21.5636541,3.80296604 21.5369152,3.73353107 21.5006882,3.67013393 Z M20.6670374,14.6568157 C20.6549617,14.7089997 20.6381421,14.7607525 20.6170097,14.8133678 C20.5997588,14.8560639 20.5786264,14.8987599 20.5553377,14.9414559 C20.5264424,14.9945025 20.4940969,15.0475491 20.4557136,15.1005957 C20.4272495,15.1407041 20.3949041,15.1803812 20.3612648,15.2200584 C20.3133935,15.2765551 20.2625032,15.3330519 20.2047126,15.3891174 C20.1697795,15.423188 20.1313962,15.4568273 20.0925816,15.4908978 C20.0218528,15.5525699 19.9481052,15.6138107 19.865732,15.6746202 C19.8303676,15.7009278 19.7924156,15.7263729 19.7548948,15.7522493 C19.6574271,15.8195279 19.5556466,15.8863753 19.4439469,15.9519288 C19.4146203,15.969611 19.3831374,15.9864306 19.352517,16.0036815 C19.2239976,16.0761354 19.0898717,16.148158 18.944964,16.2180243 C18.9264192,16.227081 18.9070119,16.2357065 18.8880359,16.2443319 C18.7263085,16.3206673 18.5572495,16.3957088 18.376546,16.4681627 C18.3713708,16.470319 18.3661955,16.4720441 18.3610202,16.4742005 C17.381599,16.8653652 16.1287507,17.1944265 14.6688914,17.4100631 C14.6615597,17.4109256 14.6542281,17.4117882 14.6468964,17.413082 C14.3631187,17.4549155 14.0720094,17.4920049 13.7731372,17.5247817 C13.7244033,17.529957 13.6730818,17.5334072 13.6239167,17.5385824 C13.3629965,17.5657526 13.0990573,17.5907665 12.8273553,17.610605 C12.7031486,17.6196618 12.5729042,17.6239745 12.4465412,17.6317374 C12.2421177,17.6438131 12.0398506,17.6571825 11.8302519,17.6645142 C11.4878211,17.675296 11.1384899,17.6821964 10.7818271,17.6821964 C10.4251642,17.6821964 10.075833,17.675296 9.73297092,17.6632204 C9.52337221,17.6558887 9.32110513,17.642088 9.11668169,17.6304436 C8.99031868,17.623112 8.8600742,17.618368 8.73586756,17.6093112 C8.46416551,17.5894727 8.20022639,17.5644588 7.93930617,17.5372886 C7.89014104,17.5321133 7.83881955,17.5286632 7.79008569,17.5234879 C7.49121344,17.4907111 7.20010411,17.4531904 6.91632642,17.4117882 C6.90899478,17.4109256 6.90166314,17.4100631 6.8943315,17.4087692 C5.43447211,17.1931327 4.18162381,16.8640713 3.20220264,16.4729067 C3.19702736,16.4711816 3.19185208,16.4690252 3.18667681,16.4668688 C3.00597338,16.394415 2.83648306,16.3193734 2.67518693,16.2430381 C2.65664219,16.2339814 2.63680363,16.2253559 2.61825888,16.2167304 C2.47335113,16.1468642 2.3392252,16.0752729 2.21070582,16.0023877 C2.1805167,15.9851368 2.1486025,15.9683171 2.11927593,15.950635 C2.0075762,15.8850814 1.90579575,15.8182341 1.80832803,15.7509555 C1.77123855,15.7250791 1.73285525,15.699634 1.69749085,15.6733264 C1.61511769,15.6125169 1.54137,15.5512761 1.47064121,15.489604 C1.43225791,15.4559647 1.39344333,15.4223254 1.35851021,15.3878236 C1.30071962,15.3317581 1.24982939,15.2756926 1.20195808,15.2187645 C1.16831878,15.1790874 1.1359733,15.1394103 1.10750928,15.0993019 C1.06955724,15.0462553 1.03721176,14.9932087 1.00788519,14.9401621 C0.984596447,14.8974661 0.963895339,14.85477 0.946213143,14.812074 C0.925080762,14.75989 0.908261112,14.7077059 0.896185465,14.6555219 C0.880228361,14.5869495 0.862546165,14.5170832 0.862546165,14.4476483 C0.862546165,14.3989144 0.868152715,14.3501805 0.87591563,14.301878 C0.886697457,14.2367557 0.880659634,14.1716335 0.862546165,14.1099614 L0.862546165,10.9081901 C0.874621811,10.9194032 0.889716369,10.930185 0.902223288,10.9413981 C0.99624082,11.0242025 1.09198344,11.1065757 1.19980172,11.1859299 C2.82440742,12.4146269 6.07318755,13.3694656 10.7818271,13.3694656 C15.470628,13.3694656 18.711214,12.4223899 20.34272,11.2010245 C20.4729645,11.1061444 20.5902708,11.0082454 20.7006767,10.9086213 L20.701108,10.9081901 L20.701108,14.1099614 C20.6829945,14.1716335 20.6769567,14.2367557 20.6877385,14.301878 C20.6959327,14.3501805 20.701108,14.3989144 20.701108,14.4476483 C20.701108,14.5170832 20.6834258,14.5869495 20.6670374,14.6568157 Z M20.701108,5.73291308 L20.701108,8.93468445 C20.6829945,8.9963565 20.6769567,9.06147873 20.6877385,9.12660097 C20.6959327,9.17490355 20.701108,9.22363741 20.701108,9.27237127 C20.701108,9.34180624 20.6834258,9.41167248 20.6670374,9.48153872 C20.6549617,9.53372276 20.6381421,9.58547553 20.6170097,9.63809085 C20.5997588,9.68078688 20.5786264,9.72348292 20.5553377,9.76617895 C20.5264424,9.81922554 20.4940969,9.87227213 20.4557136,9.92531872 C20.4272495,9.96542711 20.3949041,10.0051042 20.3612648,10.0447814 C20.3133935,10.1012781 20.2625032,10.1577749 20.2047126,10.2138404 C20.1697795,10.247911 20.1313962,10.2815503 20.0925816,10.3156209 C20.0218528,10.3772929 19.9481052,10.4385337 19.865732,10.4993432 C19.8303676,10.5256508 19.7924156,10.551096 19.7548948,10.5769723 C19.6574271,10.6442509 19.5556466,10.7110983 19.4439469,10.7766518 C19.4146203,10.794334 19.3831374,10.8111536 19.352517,10.8284046 C19.2239976,10.9008584 19.0898717,10.972881 18.944964,11.0427473 C18.9264192,11.051804 18.9070119,11.0604295 18.8880359,11.0690549 C18.7263085,11.1453903 18.5572495,11.2204318 18.376546,11.2928857 C18.3713708,11.295042 18.3661955,11.2967671 18.3610202,11.2989235 C17.381599,11.6900882 16.1287507,12.0191495 14.6688914,12.2347861 C14.6615597,12.2356486 14.6542281,12.2365112 14.6468964,12.237805 C14.3631187,12.2796385 14.0720094,12.316728 13.7731372,12.3495047 C13.7244033,12.35468 13.6730818,12.3581302 13.6239167,12.3633055 C13.3629965,12.3904757 13.0990573,12.4154895 12.8273553,12.4353281 C12.7031486,12.4443848 12.5729042,12.4486975 12.4465412,12.4564604 C12.2421177,12.4685361 12.0398506,12.4819056 11.8302519,12.4892372 C11.4878211,12.500019 11.1384899,12.5069194 10.7818271,12.5069194 C10.4251642,12.5069194 10.075833,12.500019 9.73297092,12.4879434 C9.52337221,12.4806117 9.32110513,12.466811 9.11668169,12.4551666 C8.99031868,12.447835 8.8600742,12.443091 8.73586756,12.4340342 C8.46416551,12.4141957 8.20022639,12.3891818 7.93930617,12.3620116 C7.89014104,12.3568364 7.83881955,12.3533862 7.79008569,12.3482109 C7.49121344,12.3154341 7.20010411,12.2779134 6.91632642,12.2365112 C6.90899478,12.2356486 6.90166314,12.2347861 6.8943315,12.2334923 C5.43447211,12.0178557 4.18162381,11.6887944 3.20220264,11.2976297 C3.19702736,11.2959046 3.19185208,11.2937482 3.18667681,11.2915918 C3.00597338,11.219138 2.83648306,11.1440964 2.67518693,11.0677611 C2.65664219,11.0587044 2.63680363,11.0500789 2.61825888,11.0414535 C2.47335113,10.9715872 2.3392252,10.8999959 2.21070582,10.8271107 C2.1805167,10.8098598 2.1486025,10.7930402 2.11927593,10.775358 C2.0075762,10.7098045 1.90579575,10.6429571 1.80832803,10.5756785 C1.77123855,10.5498021 1.73285525,10.524357 1.69749085,10.4980494 C1.61511769,10.4372399 1.54137,10.3759991 1.47064121,10.314327 C1.43225791,10.2806877 1.39344333,10.2470484 1.35851021,10.2125466 C1.30071962,10.1564811 1.24982939,10.1004156 1.20195808,10.0434875 C1.16831878,10.0038104 1.1359733,9.9641333 1.10750928,9.9240249 C1.06955724,9.87097831 1.03721176,9.81793172 1.00788519,9.76488513 C0.984596447,9.7221891 0.963895339,9.67949306 0.946213143,9.63679703 C0.925080762,9.58461298 0.908261112,9.53242894 0.896185465,9.4802449 C0.880228361,9.41167248 0.862546165,9.34180624 0.862546165,9.27237127 C0.862546165,9.22363741 0.868152715,9.17490355 0.87591563,9.12660097 C0.886697457,9.06147873 0.880659634,8.9963565 0.862546165,8.93468445 L0.862546165,5.73291308 C0.914298935,5.77992185 0.973383347,5.82606807 1.02944885,5.87264556 C1.06050051,5.89852195 1.08939581,5.92439833 1.12217256,5.95027472 C1.25155449,6.05205517 1.39128696,6.15254179 1.54266382,6.25044078 C1.57414675,6.27071062 1.60951114,6.29054918 1.6422879,6.31081901 C1.76908218,6.38974199 1.90320811,6.46693987 2.04423441,6.54284393 C2.09641845,6.57087668 2.1486025,6.59847816 2.20251163,6.62607964 C2.35992631,6.70629643 2.5251039,6.78435686 2.69890695,6.85982965 C2.72737097,6.87233657 2.75324736,6.88527476 2.78214265,6.89735041 C2.98440973,6.98317375 3.19918373,7.06511564 3.42258318,7.14446988 C3.48425523,7.16646481 3.54894619,7.18716592 3.61234334,7.20872957 C3.79002785,7.26867653 3.97375018,7.32603585 4.16394161,7.38167008 C4.23251403,7.40150864 4.29979263,7.42220975 4.37009014,7.44118576 C4.6223849,7.511052 4.88287384,7.57746806 5.15630097,7.63870884 C5.19382173,7.6473343 5.2343614,7.65423467 5.27231343,7.66242885 C5.51339509,7.71504417 5.76353347,7.76377803 6.02057223,7.80949298 C6.10768939,7.82501881 6.19610037,7.83968209 6.28494263,7.85434538 C6.52947447,7.89445377 6.78133795,7.93111199 7.03967052,7.96475129 C7.10608658,7.97337675 7.16948372,7.98329603 7.23676232,7.99149022 C7.5576295,8.03030479 7.88970977,8.06351282 8.23084678,8.09197684 C8.31494503,8.09887721 8.40249346,8.10405249 8.48788553,8.11009031 C8.7608814,8.12992888 9.03991508,8.14631725 9.32541786,8.15925545 C9.42935467,8.16399945 9.53286021,8.16874345 9.63895339,8.17262491 C10.0107108,8.18513183 10.3893686,8.19418857 10.7818271,8.19418857 C11.1742856,8.19418857 11.5529433,8.18513183 11.9247007,8.17262491 C12.0303626,8.16874345 12.1338682,8.16399945 12.2382363,8.15925545 C12.523739,8.14631725 12.8027727,8.12992888 13.0757686,8.11009031 C13.1611607,8.10362122 13.2482778,8.09887721 13.3328073,8.09197684 C13.6739444,8.06394409 14.0060246,8.03030479 14.3268918,7.99149022 C14.3941704,7.98329603 14.4575675,7.97337675 14.5239836,7.96475129 C14.7823162,7.93111199 15.0337484,7.89445377 15.2787115,7.85434538 C15.3675537,7.83968209 15.4559647,7.82501881 15.5430819,7.80949298 C15.8001206,7.76377803 16.050259,7.71504417 16.2913407,7.66242885 C16.3292927,7.65423467 16.3698324,7.64690302 16.4073531,7.63870884 C16.6807803,7.57746806 16.9412692,7.51062073 17.193564,7.44118576 C17.2638615,7.42177847 17.3311401,7.40150864 17.3997125,7.38167008 C17.5899039,7.32603585 17.7736263,7.26867653 17.9513108,7.20872957 C18.0147079,7.18716592 18.0793989,7.16646481 18.1410709,7.14446988 C18.3644704,7.06511564 18.5796757,6.98317375 18.7815115,6.89735041 C18.8104068,6.88527476 18.8362831,6.87233657 18.8647472,6.85982965 C19.0385502,6.78392559 19.2037278,6.70629643 19.3611425,6.62607964 C19.4150516,6.59847816 19.4676669,6.57087668 19.5194197,6.54284393 C19.660446,6.46737114 19.7945719,6.39017326 19.9213662,6.31081901 C19.954143,6.29054918 19.9895074,6.27071062 20.0209903,6.25044078 C20.1723672,6.15254179 20.3120996,6.05248644 20.4414816,5.95027472 C20.473827,5.92439833 20.5027223,5.89852195 20.5342053,5.87264556 C20.5902708,5.82606807 20.6493552,5.77992185 20.701108,5.73291308 Z M10.7818271,0.862546165 C16.6277337,0.862546165 20.701108,2.56693739 20.701108,4.09709428 C20.701108,5.62725118 16.6277337,7.3316424 10.7818271,7.3316424 C4.93592043,7.3316424 0.862546165,5.62725118 0.862546165,4.09709428 C0.862546165,2.56693739 4.93592043,0.862546165 10.7818271,0.862546165 Z M20.701108,19.7104737 C20.6950701,19.7294497 20.6907574,19.748857 20.6873072,19.7686956 C20.4427754,21.2604691 16.403903,22.8574734 10.7818271,22.8574734 C5.15975116,22.8574734 1.12087874,21.2604691 0.876346903,19.7686956 C0.872896719,19.7492883 0.868152715,19.7303122 0.862546165,19.7121988 L0.862546165,16.0834671 C0.874621811,16.0946802 0.889716369,16.105462 0.902223288,16.1166751 C0.99624082,16.1994795 1.09198344,16.2818527 1.19980172,16.3612069 C2.82440742,17.5899039 6.07318755,18.5447425 10.7818271,18.5447425 C15.470628,18.5447425 18.711214,17.5976669 20.34272,16.3763015 C20.4729645,16.2814214 20.5902708,16.1835224 20.7006767,16.0838983 L20.701108,16.0834671 L20.701108,19.7104737 Z" id="Shape"></path>
            </g>
        </g>
    </g>
</svg>