<?xml version="1.0" encoding="UTF-8"?>
<svg width="11px" height="12px" viewBox="0 0 11 12" version="1.1" xmlns="http://www.w3.org/2000/svg" xmlns:xlink="http://www.w3.org/1999/xlink">
    <!-- Generator: Sketch 45.2 (43514) - http://www.bohemiancoding.com/sketch -->
    <title>search icon</title>
    <desc>Created with Sketch.</desc>
    <defs></defs>
    <g id="Symbols" stroke="none" stroke-width="1" fill="none" fill-rule="evenodd">
        <g id="Search_line" transform="translate(-460.000000, -4.000000)" fill-rule="nonzero" fill="#4A4A4A">
            <g id="Search" transform="translate(127.000000, 0.000000)">
                <g id="search-icon" transform="translate(333.000000, 4.000000)">
                    <path d="M7.82168983,7.19678467 L7.8064563,7.18044278 L7.33008635,7.17812465 L7.31469449,7.19431751 L7.56688167,7.46485323 L7.82168983,7.19678467 Z M6.78379594,8.28869132 L9.72297347,11.4417163 C9.93496079,11.6691274 10.2559883,11.6688063 10.4653931,11.4441657 C10.688192,11.2051565 10.6876137,10.8126422 10.4650744,10.5739115 L7.56688167,7.46485323 L6.78379594,8.28869132 Z" id="Line-44"></path>
                    <path d="M4.22451002,8.45597609 C6.13782659,8.45597609 7.71067368,6.76869243 7.71067368,4.66244724 C7.71067368,2.55620205 6.13782659,0.868918386 4.22451002,0.868918386 C2.31119345,0.868918386 0.738346354,2.55620205 0.738346354,4.66244724 C0.738346354,6.76869243 2.31119345,8.45597609 4.22451002,8.45597609 Z M4.22451002,9.19432245 C1.89137756,9.19432245 0,7.1653328 0,4.66244724 C0,2.15956167 1.89137756,0.130572031 4.22451002,0.130572031 C6.55764248,0.130572031 8.44902004,2.15956167 8.44902004,4.66244724 C8.44902004,7.1653328 6.55764248,9.19432245 4.22451002,9.19432245 Z" id="Line-43"></path>
                </g>
            </g>
        </g>
    </g>
</svg>