<?xml version="1.0" encoding="UTF-8"?>
<svg width="31px" height="30px" viewBox="0 0 31 30" version="1.1" xmlns="http://www.w3.org/2000/svg" xmlns:xlink="http://www.w3.org/1999/xlink">
    <!-- Generator: Sketch 45.2 (43514) - http://www.bohemiancoding.com/sketch -->
    <title>reboot</title>
    <desc>Created with Sketch.</desc>
    <defs></defs>
    <g id="z" stroke="none" stroke-width="1" fill="none" fill-rule="evenodd">
        <g id="reboot" fill-rule="nonzero" fill="#F8E71C">
            <path d="M14.7195662,27.1909446 C9.63577307,27.1909446 5.1115651,23.9629812 3.46040551,19.1582141 C3.3377567,18.8032991 3.5270958,18.4154222 3.88277734,18.2943065 C4.23692578,18.1716577 4.62480264,18.3602303 4.7466849,18.7166784 C6.20927195,22.9718255 10.2175884,25.8295428 14.7203328,25.8295428 C20.5346529,25.8295428 25.2642976,21.0998981 25.2642976,15.2863445 C25.2642976,14.9107325 25.5693865,14.604877 25.9449985,14.604877 C26.3206105,14.604877 26.6249328,14.909966 26.6249328,15.2863445 C26.6241663,21.8503555 21.2843437,27.1909446 14.7195662,27.1909446 Z" id="Shape"></path>
            <path d="M3.49566704,15.9670454 C3.12082161,15.9670454 2.8157327,15.6634896 2.8157327,15.287111 C2.8157327,8.72386663 8.1563218,3.38327753 14.7195662,3.38327753 C19.8018263,3.38327753 24.3260342,6.60970778 25.9787269,11.4129418 C26.1006092,11.7678568 25.9120366,12.1557336 25.5563551,12.2783824 C25.199907,12.3994981 24.8135632,12.2109256 24.691681,11.8560106 C23.2283274,7.60086347 19.2207775,4.74314621 14.7187997,4.74314621 C8.90524609,4.74314621 4.17483482,9.47432403 4.17483482,15.2878776 C4.17560138,15.662723 3.87127902,15.9670454 3.49566704,15.9670454 Z" id="Shape"></path>
            <path d="M25.3087578,12.453157 C25.2420675,12.453157 25.1730776,12.4424252 25.1056207,12.4217282 L20.3813419,10.942277 C20.0233607,10.8295934 19.8240564,10.447849 19.9359734,10.0891012 C20.0478904,9.73111998 20.431168,9.53181566 20.7876161,9.64296615 L24.9109157,10.935378 L26.4601235,7.05201004 C26.5996365,6.70322749 26.9959455,6.53228571 27.3439615,6.67333185 C27.692744,6.81284487 27.8636858,7.20762072 27.7241728,7.55640327 L25.9396326,12.0254193 C25.8346146,12.2883477 25.5801183,12.453157 25.3087578,12.453157 Z" id="Shape"></path>
            <path d="M2.346601,23.9514829 C2.2630465,23.9514829 2.17719234,23.9353852 2.09517094,23.9016568 C1.74638839,23.7621438 1.57621317,23.3673679 1.71572619,23.0185854 L3.49949981,18.5495694 C3.63134728,18.2184176 3.99469438,18.0451762 4.33427827,18.1524939 L9.05855711,19.6319451 C9.41730487,19.7438622 9.61584263,20.1256066 9.5039256,20.4835878 C9.39200856,20.8431021 9.00949758,21.0424064 8.65228292,20.9297228 L4.52974981,19.6388441 L2.97900893,23.5222121 C2.87245778,23.7882067 2.61642839,23.9514829 2.346601,23.9514829 Z" id="Shape"></path>
        </g>
    </g>
</svg>