<?xml version="1.0" encoding="UTF-8"?>
<svg width="40px" height="40px" viewBox="0 0 40 40" version="1.1" xmlns="http://www.w3.org/2000/svg" xmlns:xlink="http://www.w3.org/1999/xlink">
    <!-- Generator: Sketch 45.2 (43514) - http://www.bohemiancoding.com/sketch -->
    <title>refresh active</title>
    <desc>Created with Sketch.</desc>
    <defs></defs>
    <g id="Symbols" stroke="none" stroke-width="1" fill="none" fill-rule="evenodd">
        <g id="refresh-active" fill-rule="nonzero" fill="#7ED321">
            <g id="+-">
                <path d="M20,0 C8.97230769,0 0,8.97153846 0,20 C0,31.0284615 8.97230769,40 20,40 C31.0276923,40 40,31.0284615 40,20 C40,8.97153846 31.0276923,0 20,0 Z M20,38.4615385 C9.82076923,38.4615385 1.53846154,30.1792308 1.53846154,20 C1.53846154,9.82076923 9.82076923,1.53846154 20,1.53846154 C30.1792308,1.53846154 38.4615385,9.82076923 38.4615385,20 C38.4615385,30.1792308 30.1792308,38.4615385 20,38.4615385 Z" id="Shape"></path>
                <g id="001-circular-arrow" transform="translate(6.666667, 8.000000)">
                    <path d="M13.0528996,24.1909446 C7.9691064,24.1909446 3.44489844,20.9629812 1.79373884,16.1582141 C1.67109003,15.8032991 1.86042913,15.4154222 2.21611068,15.2943065 C2.57025911,15.1716577 2.95813597,15.3602303 3.08001823,15.7166784 C4.54260528,19.9718255 8.55092169,22.8295428 13.0536661,22.8295428 C18.8679862,22.8295428 23.597631,18.0998981 23.597631,12.2863445 C23.597631,11.9107325 23.9027199,11.604877 24.2783318,11.604877 C24.6539438,11.604877 24.9582662,11.909966 24.9582662,12.2863445 C24.9574996,18.8503555 19.6176771,24.1909446 13.0528996,24.1909446 Z" id="Shape"></path>
                    <path d="M1.82900037,12.9670454 C1.45415495,12.9670454 1.14906603,12.6634896 1.14906603,12.287111 C1.14906603,5.72386663 6.48965513,0.38327753 13.0528996,0.38327753 C18.1351596,0.38327753 22.6593676,3.60970778 24.3120603,8.41294178 C24.4339425,8.76785677 24.24537,9.15573363 23.8896884,9.27838244 C23.5332403,9.39949814 23.1468966,9.2109256 23.0250143,8.8560106 C21.5616607,4.60086347 17.5541109,1.74314621 13.052133,1.74314621 C7.23857943,1.74314621 2.50816815,6.47432403 2.50816815,12.2878776 C2.50893471,12.662723 2.20461235,12.9670454 1.82900037,12.9670454 Z" id="Shape"></path>
                    <path d="M23.6420911,9.45315699 C23.5754009,9.45315699 23.5064109,9.44242522 23.4389541,9.42172824 L18.7146752,7.94227697 C18.356694,7.82959338 18.1573897,7.44784896 18.2693067,7.08910119 C18.3812238,6.73111998 18.7645013,6.53181566 19.1209494,6.64296615 L23.2442491,7.93537798 L24.7934568,4.05201004 C24.9329699,3.70322749 25.3292788,3.53228571 25.6772948,3.67333185 C26.0260774,3.81284487 26.1970192,4.20762072 26.0575061,4.55640327 L24.272966,9.02541927 C24.1679479,9.28834766 23.9134516,9.45315699 23.6420911,9.45315699 Z" id="Shape"></path>
                    <path d="M0.679934338,20.9514829 C0.596379836,20.9514829 0.51052567,20.9353852 0.428504278,20.9016568 C0.0797217262,20.7621438 -0.090453497,20.3673679 0.0490595238,20.0185854 L1.83283315,15.5495694 C1.96468062,15.2184176 2.32802772,15.0451762 2.66761161,15.1524939 L7.39189044,16.6319451 C7.75063821,16.7438622 7.94917597,17.1256066 7.83725893,17.4835878 C7.72534189,17.8431021 7.34283092,18.0424064 6.98561626,17.9297228 L2.86308315,16.6388441 L1.31234226,20.5222121 C1.20579111,20.7882067 0.949761719,20.9514829 0.679934338,20.9514829 Z" id="Shape"></path>
                </g>
            </g>
        </g>
    </g>
</svg>