<?xml version="1.0" encoding="utf-8"?>
<!-- Generator: Adobe Illustrator 21.1.0, SVG Export Plug-In . SVG Version: 6.00 Build 0)  -->
<svg version="1.1" id="Layer_1" xmlns="http://www.w3.org/2000/svg" xmlns:xlink="http://www.w3.org/1999/xlink" x="0px" y="0px"
	 viewBox="0 0 30 30" style="enable-background:new 0 0 30 30;" xml:space="preserve">
<style type="text/css">
	.st0{fill:#7ED321;}
</style>
<title>+ copy 2</title>
<desc>Created with Sketch.</desc>
<g>
	<path class="st0" d="M15,0C6.7,0,0,6.7,0,15s6.7,15,15,15s15-6.7,15-15S23.3,0,15,0z M15,28.8C7.4,28.8,1.2,22.6,1.2,15
		S7.4,1.2,15,1.2S28.8,7.4,28.8,15S22.6,28.8,15,28.8z"/>
	<path class="st0" d="M15.1,8.5c-0.2-0.2-0.5-0.2-0.7,0L11,11.9c-0.2,0.2-0.2,0.5,0,0.7s0.5,0.2,0.7,0l2.5-2.5v10.7
		c0,0.3,0.2,0.5,0.5,0.5s0.5-0.2,0.5-0.5V10l2.6,2.6c0.1,0.1,0.2,0.1,0.4,0.1s0.3,0,0.4-0.1c0.2-0.2,0.2-0.5,0-0.7L15.1,8.5z"/>
</g>
</svg>
