<?xml version="1.0" encoding="UTF-8"?>
<svg width="30px" height="30px" viewBox="0 0 30 30" version="1.1" xmlns="http://www.w3.org/2000/svg" xmlns:xlink="http://www.w3.org/1999/xlink">
    <!-- Generator: Sketch 45.2 (43514) - http://www.bohemiancoding.com/sketch -->
    <title>+ copy</title>
    <desc>Created with Sketch.</desc>
    <defs></defs>
    <g id="Page-1" stroke="none" stroke-width="1" fill="none" fill-rule="evenodd">
        <g id="Restore-step1" transform="translate(-334.000000, -176.000000)">
            <g id="menu" transform="translate(211.000000, 176.000000)">
                <g id="point" transform="translate(123.000000, 0.000000)">
                    <path d="M15,0 C6.72923077,0 0,6.72865385 0,15 C0,23.2713462 6.72923077,30 15,30 C23.2707692,30 30,23.2713462 30,15 C30,6.72865385 23.2707692,0 15,0 Z M15,28.8461538 C7.36557692,28.8461538 1.15384615,22.6344231 1.15384615,15 C1.15384615,7.36557692 7.36557692,1.15384615 15,1.15384615 C22.6344231,1.15384615 28.8461538,7.36557692 28.8461538,15 C28.8461538,22.6344231 22.6344231,28.8461538 15,28.8461538 Z" id="Shape" fill="#000000" fill-rule="nonzero"></path>
                    <g id="Group" stroke-width="1" fill-rule="evenodd" transform="translate(4.500000, 5.683724)">
                        <path d="M10.2655396,10.7278809 C10.3210416,10.7833829 10.3977169,10.8177116 10.4824101,10.8177116 L16.6164357,10.8177116 C16.7858221,10.8177116 16.923137,10.6803968 16.923137,10.5110104 C16.923137,10.3416239 16.7858221,10.2043091 16.6164357,10.2043091 L10.7891114,10.2043091 L10.7891114,4.37698482 C10.7891114,4.20759838 10.6517966,4.07028354 10.4824101,4.07028354 C10.3130237,4.07028354 10.1757089,4.20759838 10.1757089,4.37698482 L10.1757089,10.5110104 C10.1757089,10.5957036 10.2100376,10.6723789 10.2655396,10.7278809 Z" id="Combined-Shape" fill="#000000" fill-rule="nonzero"></path>
                        <path d="M0.828779412,9.12444585 C0.849581521,9.14524796 0.878319366,9.15811433 0.910062313,9.15811433 L3.20908993,9.15811433 C3.27257583,9.15811433 3.32404132,9.10664884 3.32404132,9.04316295 C3.32404132,8.97967705 3.27257583,8.92821157 3.20908993,8.92821157 L1.02501369,8.92821157 L1.02501369,6.74413533 C1.02501369,6.68064943 0.973548208,6.62918395 0.910062313,6.62918395 C0.846576419,6.62918395 0.795110932,6.68064943 0.795110932,6.74413533 L0.795110932,9.04316295 C0.795110932,9.07490589 0.807977304,9.10364374 0.828779412,9.12444585 Z" id="Combined-Shape-Copy" stroke="#000000" fill="#000000" fill-rule="nonzero" transform="translate(2.059576, 7.893649) rotate(-45.000000) translate(-2.059576, -7.893649) "></path>
                        <path d="M11.1932797,18.3162759 C16.2511797,18.3162759 20.3514177,14.2160379 20.3514177,9.15813797 C20.3514177,4.10023803 16.2511797,0 11.1932797,0 C6.1353798,0 2.03514177,4.10023803 2.03514177,9.15813797" id="Oval-7" stroke="#000000" stroke-linecap="round"></path>
                    </g>
                </g>
            </g>
        </g>
    </g>
</svg>