<?xml version="1.0" encoding="UTF-8"?>
<svg width="27px" height="27px" viewBox="0 0 27 27" version="1.1" xmlns="http://www.w3.org/2000/svg" xmlns:xlink="http://www.w3.org/1999/xlink">
    <!-- Generator: Sketch 45.2 (43514) - http://www.bohemiancoding.com/sketch -->
    <title>notification</title>
    <desc>Created with Sketch.</desc>
    <defs></defs>
    <g id="Symbols" stroke="none" stroke-width="1" fill="none" fill-rule="evenodd">
        <g id="Header" transform="translate(-1074.000000, -28.000000)" fill="#FFFFFF">
            <g id="Group-2">
                <g transform="translate(1074.000000, 28.000000)">
                    <g id="notification">
                        <g id="list">
                            <path d="M26.3785263,19.8298421 L25.6945263,19.6986316 C25.3738421,19.6370526 25.1213684,19.4272105 25.002,19.1226316 C24.8821579,18.8185263 24.9247895,18.4931053 25.1180526,18.2297368 L25.5476842,17.6442632 C25.686,17.4557368 25.6661053,17.1942632 25.5003158,17.0289474 L24.5723684,16.1014737 C24.4117895,15.9408947 24.1593158,15.9172105 23.9717368,16.0441579 L23.3952632,16.4344737 C23.1252632,16.6182632 22.7974737,16.6481053 22.4976316,16.5173684 C22.1982632,16.3871053 21.9978947,16.1265789 21.9481579,15.8030526 L21.8377895,15.0854211 C21.8027368,14.8547368 21.6037895,14.6842105 21.3702632,14.6842105 L20.0581579,14.6842105 C19.8312632,14.6842105 19.6356316,14.8457368 19.593,15.0688421 L19.4234211,15.9522632 C19.3632632,16.2658421 19.1591053,16.5159474 18.864,16.6381579 C18.5679474,16.7617895 18.2477368,16.7276842 17.9829474,16.5486316 L17.2383158,16.0446316 C17.0502632,15.9176842 16.7982632,15.9413684 16.6376842,16.1019474 L15.7097368,17.0294211 C15.5439474,17.1947368 15.5240526,17.4557368 15.6623684,17.6447368 L16.092,18.2302105 C16.2852632,18.4935789 16.3278947,18.819 16.2080526,19.1231053 C16.0886842,19.4276842 15.8362105,19.6375263 15.5155263,19.6991053 L14.8315263,19.8303158 C14.6084211,19.8734211 14.4468947,20.0685789 14.4468947,20.2954737 L14.4468947,21.6075789 C14.4468947,21.8411053 14.6174211,22.0400526 14.8485789,22.0755789 L15.5662105,22.1859474 C15.8897368,22.2356842 16.1497895,22.4360526 16.2805263,22.7354211 C16.4112632,23.0352632 16.3809474,23.3621053 16.1976316,23.6330526 L15.8073158,24.2095263 C15.6798947,24.3971053 15.7040526,24.6495789 15.8646316,24.8101579 L16.7921053,25.7381053 C16.9569474,25.9034211 17.2179474,25.9228421 17.4074211,25.7854737 L17.9928947,25.3558421 C18.2557895,25.1630526 18.5821579,25.1199474 18.8857895,25.2397895 C19.1903684,25.3591579 19.4002105,25.6116316 19.4617895,25.9323158 L19.593,26.6163158 C19.6361053,26.8384737 19.8312632,27 20.0586316,27 L21.3707368,27 C21.6042632,27 21.8032105,26.8294737 21.8387368,26.5983158 L21.9164211,26.0938421 C21.9661579,25.7679474 22.1778947,25.4988947 22.4815263,25.3728947 C22.7865789,25.2468947 23.1262105,25.2881053 23.3914737,25.4827895 L23.8031053,25.785 C23.9925789,25.9237895 24.2535789,25.9034211 24.4184211,25.7376316 L25.3458947,24.8096842 C25.5064737,24.6491053 25.5306316,24.3971053 25.4032105,24.2090526 L25.0128947,23.6325789 C24.8295789,23.3621053 24.7992632,23.0347895 24.93,22.7349474 C25.0602632,22.4355789 25.3207895,22.2352105 25.6443158,22.1854737 L26.3619474,22.0751053 C26.5926316,22.0395789 26.7636316,21.8406316 26.7636316,21.6071053 L26.7636316,20.295 C26.7631579,20.0681053 26.6016316,19.8729474 26.3785263,19.8298421 Z M25.8157895,21.2011579 L25.4998421,21.2499474 C24.8584737,21.3484737 24.3208421,21.7624737 24.0617368,22.3569474 C23.8021579,22.9518947 23.8646842,23.6273684 24.2284737,24.1640526 L24.3994737,24.4165263 L24.0356842,24.7803158 L23.9518421,24.7187368 C23.4165789,24.327 22.7321053,24.2441053 22.1191579,24.4975263 C21.5062105,24.7514211 21.0808421,25.2942632 20.9799474,25.9493684 L20.9643158,26.0526316 L20.4498947,26.0526316 L20.3925789,25.7527895 C20.2698947,25.1152105 19.836,24.5936842 19.2325263,24.3568421 C18.6285789,24.1204737 17.9559474,24.2081053 17.4325263,24.5908421 L17.1748421,24.7798421 L16.8110526,24.4160526 L16.9820526,24.1635789 C17.3458421,23.6264211 17.4078947,22.9509474 17.1487895,22.3564737 C16.8896842,21.762 16.3515789,21.348 15.7106842,21.2494737 L15.3947368,21.2011579 L15.3947368,20.6867368 L15.6945789,20.6294211 C16.3321579,20.5067368 16.8536842,20.0728421 17.0905263,19.4693684 C17.3273684,18.8654211 17.2397368,18.1927895 16.8565263,17.6693684 L16.6675263,17.4116842 L17.0313158,17.0478947 L17.4524211,17.3330526 C17.9767895,17.6892632 18.6413684,17.7560526 19.2273158,17.5135263 C19.8132632,17.2705263 20.2348421,16.7537368 20.3546842,16.1308421 L20.4498947,15.6315789 L20.9643158,15.6315789 L21.0131053,15.9475263 C21.1116316,16.5888947 21.5256316,17.1265263 22.1201053,17.3856316 C22.7150526,17.6447368 23.3905263,17.5826842 23.9272105,17.2188947 L24.1796842,17.0478947 L24.5434737,17.4116842 L24.3544737,17.6693684 C23.9707895,18.1923158 23.8836316,18.8649474 24.1204737,19.4693684 C24.3573158,20.0728421 24.8793158,20.5067368 25.5164211,20.6294211 L25.8162632,20.6867368 L25.8162632,21.2011579 L25.8157895,21.2011579 Z" id="Shape" fill-rule="nonzero"></path>
                            <path d="M20.6052632,18.4736842 C19.2993158,18.4736842 18.2368421,19.5361579 18.2368421,20.8421053 C18.2368421,22.1480526 19.2993158,23.2105263 20.6052632,23.2105263 C21.9112105,23.2105263 22.9736842,22.1480526 22.9736842,20.8421053 C22.9736842,19.5361579 21.9112105,18.4736842 20.6052632,18.4736842 Z M20.6052632,22.2631579 C19.8217895,22.2631579 19.1842105,21.6255789 19.1842105,20.8421053 C19.1842105,20.0586316 19.8217895,19.4210526 20.6052632,19.4210526 C21.3887368,19.4210526 22.0263158,20.0586316 22.0263158,20.8421053 C22.0263158,21.6255789 21.3887368,22.2631579 20.6052632,22.2631579 Z" id="Shape" fill-rule="nonzero"></path>
                            <path d="M13.0263158,5.68421053 C12.7643684,5.68421053 12.5526316,5.89594737 12.5526316,6.15789474 C12.5526316,6.41984211 12.7643684,6.63157895 13.0263158,6.63157895 L21.5526316,6.63157895 C21.8145789,6.63157895 22.0263158,6.41984211 22.0263158,6.15789474 C22.0263158,5.89594737 21.8145789,5.68421053 21.5526316,5.68421053 L13.0263158,5.68421053 Z" id="Shape" fill-rule="nonzero"></path>
                            <path d="M22.0263158,12.7894737 C22.0263158,12.5275263 21.8145789,12.3157895 21.5526316,12.3157895 L13.0263158,12.3157895 C12.7643684,12.3157895 12.5526316,12.5275263 12.5526316,12.7894737 C12.5526316,13.0514211 12.7643684,13.2631579 13.0263158,13.2631579 L21.5526316,13.2631579 C21.8145789,13.2631579 22.0263158,13.0514211 22.0263158,12.7894737 Z" id="Shape" fill-rule="nonzero"></path>
                            <path d="M9.98478947,3.42994737 C9.78678947,3.25989474 9.48742105,3.28215789 9.31736842,3.48110526 L6.35778947,6.93331579 L4.54736842,5.57573684 C4.33847368,5.41942105 4.04147368,5.46063158 3.88468421,5.67047368 C3.72742105,5.87936842 3.77005263,6.17636842 3.97942105,6.33315789 L6.14463158,7.95742105 C6.22942105,8.02136842 6.32936842,8.05215789 6.42836842,8.05215789 C6.56242105,8.05215789 6.69505263,7.99578947 6.78836842,7.88636842 L10.0364211,4.09689474 C10.2069474,3.89889474 10.1837368,3.60047368 9.98478947,3.42994737 Z" id="Shape" fill-rule="nonzero"></path>
                            <path d="M9.98478947,10.0615263 C9.78678947,9.89147368 9.48742105,9.91373684 9.31736842,10.1126842 L6.35778947,13.5648947 L4.54736842,12.2073158 C4.33847368,12.051 4.04147368,12.0922105 3.88468421,12.3020526 C3.72742105,12.5109474 3.77005263,12.8079474 3.97942105,12.9647368 L6.14463158,14.589 C6.22942105,14.6529474 6.32936842,14.6837368 6.42836842,14.6837368 C6.56242105,14.6837368 6.69505263,14.6273684 6.78836842,14.5179474 L10.0364211,10.7284737 C10.2069474,10.5304737 10.1837368,10.2320526 9.98478947,10.0615263 Z" id="Shape" fill-rule="nonzero"></path>
                            <path d="M9.31736842,17.2184211 L6.35778947,20.6701579 L4.54736842,19.3125789 C4.33847368,19.1557895 4.04147368,19.1974737 3.88468421,19.4073158 C3.72742105,19.6162105 3.77005263,19.9132105 3.97942105,20.07 L6.14463158,21.6942632 C6.22942105,21.7582105 6.32936842,21.789 6.42836842,21.789 C6.56242105,21.789 6.69505263,21.7326316 6.78836842,21.6232105 L10.0364211,17.8342105 C10.2069474,17.6357368 10.1842105,17.3368421 9.98526316,17.1667895 C9.78678947,16.9967368 9.48742105,17.0194737 9.31736842,17.2184211 Z" id="Shape" fill-rule="nonzero"></path>
                            <path d="M11.1315789,24.6315789 L6.00442105,24.6315789 C3.34610526,24.6315789 1.18421053,22.4696842 1.18421053,19.8113684 L1.18421053,5.76757895 C1.18421053,3.10926316 3.34610526,0.947368421 6.00442105,0.947368421 L20.0482105,0.947368421 C22.7065263,0.947368421 24.8684211,3.10926316 24.8684211,5.76757895 L24.8684211,15.6315789 C24.8684211,15.8935263 25.0801579,16.1052632 25.3421053,16.1052632 C25.6040526,16.1052632 25.8157895,15.8935263 25.8157895,15.6315789 L25.8157895,5.76757895 C25.8157895,2.58726316 23.2285263,0 20.0482105,0 L6.00442105,0 C2.82410526,0 0.236842105,2.58726316 0.236842105,5.76757895 L0.236842105,19.8113684 C0.236842105,22.9916842 2.82410526,25.5789474 6.00442105,25.5789474 L11.1315789,25.5789474 C11.3935263,25.5789474 11.6052632,25.3672105 11.6052632,25.1052632 C11.6052632,24.8433158 11.3935263,24.6315789 11.1315789,24.6315789 Z" id="Shape" fill-rule="nonzero"></path>
                        </g>
                    </g>
                </g>
            </g>
        </g>
    </g>
</svg>