<?xml version="1.0" encoding="utf-8"?>
<!-- Generator: Adobe Illustrator 21.1.0, SVG Export Plug-In . SVG Version: 6.00 Build 0)  -->
<svg version="1.1" id="Layer_1" xmlns="http://www.w3.org/2000/svg" xmlns:xlink="http://www.w3.org/1999/xlink" x="0px" y="0px"
	 viewBox="0 0 30 30" style="enable-background:new 0 0 30 30;" xml:space="preserve">
<style type="text/css">
	.st0{fill:#7ED321;}
</style>
<title>+</title>
<desc>Created with Sketch.</desc>
<g id="Page-1">
	<g id="_x32_-copy" transform="translate(-130.000000, -290.000000)">
		<g id="menu" transform="translate(130.000000, 290.000000)">
			<g id="_x2B_">
				<g id="Shape">
					<path class="st0" d="M15,0C6.7,0,0,6.7,0,15s6.7,15,15,15s15-6.7,15-15S23.3,0,15,0z M15,28.8C7.4,28.8,1.2,22.6,1.2,15
						S7.4,1.2,15,1.2S28.8,7.4,28.8,15S22.6,28.8,15,28.8z"/>
					<path class="st0" d="M22.2,14.4h-6.6V8.1c0-0.3-0.3-0.6-0.6-0.6s-0.6,0.3-0.6,0.6v6.3H7.8c-0.3,0-0.6,0.3-0.6,0.6
						s0.3,0.6,0.6,0.6h6.6v6.9c0,0.3,0.3,0.6,0.6,0.6s0.6-0.3,0.6-0.6v-6.9h6.6c0.3,0,0.6-0.3,0.6-0.6S22.5,14.4,22.2,14.4z"/>
				</g>
			</g>
		</g>
	</g>
</g>
</svg>
