<?xml version="1.0" encoding="UTF-8"?>
<svg width="30px" height="30px" viewBox="0 0 30 30" version="1.1" xmlns="http://www.w3.org/2000/svg" xmlns:xlink="http://www.w3.org/1999/xlink">
    <!-- Generator: Sketch 45.2 (43514) - http://www.bohemiancoding.com/sketch -->
    <title>+ copy 2</title>
    <desc>Created with Sketch.</desc>
    <defs></defs>
    <g id="Page-1" stroke="none" stroke-width="1" fill="none" fill-rule="evenodd">
        <g id="Step2-" transform="translate(-424.000000, -176.000000)" fill="#000000">
            <g id="menu" transform="translate(211.000000, 176.000000)">
                <g id="exclusions" transform="translate(213.000000, 0.000000)">
                    <g id="-">
                        <path d="M15,0 C6.72923077,0 0,6.72865385 0,15 C0,23.2713462 6.72923077,30 15,30 C23.2707692,30 30,23.2713462 30,15 C30,6.72865385 23.2707692,0 15,0 Z M15,28.8461538 C7.36557692,28.8461538 1.15384615,22.6344231 1.15384615,15 C1.15384615,7.36557692 7.36557692,1.15384615 15,1.15384615 C22.6344231,1.15384615 28.8461538,7.36557692 28.8461538,15 C28.8461538,22.6344231 22.6344231,28.8461538 15,28.8461538 Z" id="Shape" fill-rule="nonzero"></path>
                        <g id="Group-3" transform="translate(6.750000, 5.250000)" fill-rule="nonzero">
                            <g id="Group-2">
                                <path d="M9.94500033,3 L5.54625018,3 L4.78125016,3 L0.382500013,3 C0.171360006,3 0,3.25788462 0,3.57692308 C0,3.89596154 0.171360006,4.15384615 0.382500013,4.15384615 L4.78125016,4.15384615 L5.54625018,4.15384615 L9.94500033,4.15384615 C10.1561403,4.15384615 10.3275003,3.89596154 10.3275003,3.57692308 C10.3275003,3.25788462 10.1561403,3 9.94500033,3 Z" id="Shape"></path>
                                <g id="Group" transform="translate(12.931981, 3.181981) rotate(45.000000) translate(-12.931981, -3.181981) translate(10.681981, 0.931981)">
                                    <path d="M3.82990218,1.73298735 L2.13590699,1.73298735 L1.84129913,1.73298735 L0.14730393,1.73298735 C0.0659921607,1.73298735 0,1.83230086 0,1.95516522 C0,2.07802958 0.0659921607,2.17734309 0.14730393,2.17734309 L1.84129913,2.17734309 L2.13590699,2.17734309 L3.82990218,2.17734309 C3.91121395,2.17734309 3.97720611,2.07802958 3.97720611,1.95516522 C3.97720611,1.83230086 3.91121395,1.73298735 3.82990218,1.73298735 Z" id="Shape-Copy-2"></path>
                                    <path d="M3.64364221,1.61360306 L1.94964702,1.61360306 L1.65503916,1.61360306 L-0.0389560389,1.61360306 C-0.120267808,1.61360306 -0.186259969,1.71291656 -0.186259969,1.83578092 C-0.186259969,1.95864528 -0.120267808,2.05795879 -0.0389560389,2.05795879 L1.65503916,2.05795879 L1.94964702,2.05795879 L3.64364221,2.05795879 C3.72495398,2.05795879 3.79094614,1.95864528 3.79094614,1.83578092 C3.79094614,1.71291656 3.72495398,1.61360306 3.64364221,1.61360306 Z" id="Shape-Copy-3" transform="translate(1.802343, 1.988603) rotate(90.000000) translate(-1.802343, -1.988603) "></path>
                                </g>
                            </g>
                            <g id="Group-2-Copy" transform="translate(0.000000, 6.750000)">
                                <path d="M9.94500033,3 L5.54625018,3 L4.78125016,3 L0.382500013,3 C0.171360006,3 0,3.25788462 0,3.57692308 C0,3.89596154 0.171360006,4.15384615 0.382500013,4.15384615 L4.78125016,4.15384615 L5.54625018,4.15384615 L9.94500033,4.15384615 C10.1561403,4.15384615 10.3275003,3.89596154 10.3275003,3.57692308 C10.3275003,3.25788462 10.1561403,3 9.94500033,3 Z" id="Shape"></path>
                                <g id="Group" transform="translate(12.931981, 3.181981) rotate(45.000000) translate(-12.931981, -3.181981) translate(10.681981, 0.931981)">
                                    <path d="M3.82990218,1.73298735 L2.13590699,1.73298735 L1.84129913,1.73298735 L0.14730393,1.73298735 C0.0659921607,1.73298735 0,1.83230086 0,1.95516522 C0,2.07802958 0.0659921607,2.17734309 0.14730393,2.17734309 L1.84129913,2.17734309 L2.13590699,2.17734309 L3.82990218,2.17734309 C3.91121395,2.17734309 3.97720611,2.07802958 3.97720611,1.95516522 C3.97720611,1.83230086 3.91121395,1.73298735 3.82990218,1.73298735 Z" id="Shape-Copy-2"></path>
                                    <path d="M3.64364221,1.61360306 L1.94964702,1.61360306 L1.65503916,1.61360306 L-0.0389560389,1.61360306 C-0.120267808,1.61360306 -0.186259969,1.71291656 -0.186259969,1.83578092 C-0.186259969,1.95864528 -0.120267808,2.05795879 -0.0389560389,2.05795879 L1.65503916,2.05795879 L1.94964702,2.05795879 L3.64364221,2.05795879 C3.72495398,2.05795879 3.79094614,1.95864528 3.79094614,1.83578092 C3.79094614,1.71291656 3.72495398,1.61360306 3.64364221,1.61360306 Z" id="Shape-Copy-3" transform="translate(1.802343, 1.988603) rotate(90.000000) translate(-1.802343, -1.988603) "></path>
                                </g>
                            </g>
                            <g id="Group-2-Copy-2" transform="translate(0.000000, 13.500000)">
                                <path d="M9.94500033,3 L5.54625018,3 L4.78125016,3 L0.382500013,3 C0.171360006,3 0,3.25788462 0,3.57692308 C0,3.89596154 0.171360006,4.15384615 0.382500013,4.15384615 L4.78125016,4.15384615 L5.54625018,4.15384615 L9.94500033,4.15384615 C10.1561403,4.15384615 10.3275003,3.89596154 10.3275003,3.57692308 C10.3275003,3.25788462 10.1561403,3 9.94500033,3 Z" id="Shape"></path>
                                <g id="Group" transform="translate(12.931981, 3.181981) rotate(45.000000) translate(-12.931981, -3.181981) translate(10.681981, 0.931981)">
                                    <path d="M3.82990218,1.73298735 L2.13590699,1.73298735 L1.84129913,1.73298735 L0.14730393,1.73298735 C0.0659921607,1.73298735 0,1.83230086 0,1.95516522 C0,2.07802958 0.0659921607,2.17734309 0.14730393,2.17734309 L1.84129913,2.17734309 L2.13590699,2.17734309 L3.82990218,2.17734309 C3.91121395,2.17734309 3.97720611,2.07802958 3.97720611,1.95516522 C3.97720611,1.83230086 3.91121395,1.73298735 3.82990218,1.73298735 Z" id="Shape-Copy-2"></path>
                                    <path d="M3.64364221,1.61360306 L1.94964702,1.61360306 L1.65503916,1.61360306 L-0.0389560389,1.61360306 C-0.120267808,1.61360306 -0.186259969,1.71291656 -0.186259969,1.83578092 C-0.186259969,1.95864528 -0.120267808,2.05795879 -0.0389560389,2.05795879 L1.65503916,2.05795879 L1.94964702,2.05795879 L3.64364221,2.05795879 C3.72495398,2.05795879 3.79094614,1.95864528 3.79094614,1.83578092 C3.79094614,1.71291656 3.72495398,1.61360306 3.64364221,1.61360306 Z" id="Shape-Copy-3" transform="translate(1.802343, 1.988603) rotate(90.000000) translate(-1.802343, -1.988603) "></path>
                                </g>
                            </g>
                        </g>
                    </g>
                </g>
            </g>
        </g>
    </g>
</svg>