<?xml version="1.0" encoding="utf-8"?>
<!-- Generator: Adobe Illustrator 21.1.0, SVG Export Plug-In . SVG Version: 6.00 Build 0)  -->
<svg version="1.1" id="Layer_1" xmlns="http://www.w3.org/2000/svg" xmlns:xlink="http://www.w3.org/1999/xlink" x="0px" y="0px"
	 viewBox="0 0 30 30" style="enable-background:new 0 0 30 30;" xml:space="preserve">
<style type="text/css">
	.st0{fill:#7ED321;}
</style>
<title>+ copy 2</title>
<desc>Created with Sketch.</desc>
<g id="Page-1">
	<g id="Step2-" transform="translate(-424.000000, -176.000000)">
		<g id="menu" transform="translate(211.000000, 176.000000)">
			<g id="exclusions" transform="translate(213.000000, 0.000000)">
				<g id="_x2D_">
					<path id="Shape" class="st0" d="M15,0C6.7,0,0,6.7,0,15s6.7,15,15,15s15-6.7,15-15S23.3,0,15,0z M15,28.8
						C7.4,28.8,1.2,22.6,1.2,15S7.4,1.2,15,1.2S28.8,7.4,28.8,15S22.6,28.8,15,28.8z"/>
					<g id="Group-3" transform="translate(6.750000, 5.250000)">
						<g id="Group-2">
							<path id="Shape_1_" class="st0" d="M9.9,3H5.5H4.8H0.4C0.2,3,0,3.3,0,3.6s0.2,0.6,0.4,0.6h4.4h0.8h4.4c0.2,0,0.4-0.3,0.4-0.6
								S10.2,3,9.9,3z"/>
							
								<g id="Group" transform="translate(12.931981, 3.181981) rotate(45.000000) translate(-12.931981, -3.181981) translate(10.681981, 0.931981)">
								<path id="Shape-Copy-2" class="st0" d="M3.8,1.7H2.1H1.8H0.1C0.1,1.7,0,1.8,0,2c0,0.1,0.1,0.2,0.1,0.2h1.7h0.3h1.7
									C3.9,2.2,4,2.1,4,2S3.9,1.7,3.8,1.7z"/>
								<path id="Shape-Copy-3" class="st0" d="M2.2,3.8V2.1V1.8V0.1C2.2,0.1,2.1,0,2,0C1.8,0,1.7,0.1,1.7,0.1v1.7v0.3v1.7
									C1.7,3.9,1.8,4,2,4S2.2,3.9,2.2,3.8z"/>
							</g>
						</g>
						<g id="Group-2-Copy" transform="translate(0.000000, 6.750000)">
							<path id="Shape_2_" class="st0" d="M9.9,3H5.5H4.8H0.4C0.2,3,0,3.3,0,3.6s0.2,0.6,0.4,0.6h4.4h0.8h4.4c0.2,0,0.4-0.3,0.4-0.6
								S10.2,3,9.9,3z"/>
							
								<g id="Group_1_" transform="translate(12.931981, 3.181981) rotate(45.000000) translate(-12.931981, -3.181981) translate(10.681981, 0.931981)">
								<path id="Shape-Copy-2_1_" class="st0" d="M3.8,1.7H2.1H1.8H0.1C0.1,1.7,0,1.8,0,2c0,0.1,0.1,0.2,0.1,0.2h1.7h0.3h1.7
									C3.9,2.2,4,2.1,4,2S3.9,1.7,3.8,1.7z"/>
								<path id="Shape-Copy-3_1_" class="st0" d="M2.2,3.8V2.1V1.8V0.1C2.2,0.1,2.1,0,2,0C1.8,0,1.7,0.1,1.7,0.1v1.7v0.3v1.7
									C1.7,3.9,1.8,4,2,4S2.2,3.9,2.2,3.8z"/>
							</g>
						</g>
						<g id="Group-2-Copy-2" transform="translate(0.000000, 13.500000)">
							<path id="Shape_3_" class="st0" d="M9.9,3H5.5H4.8H0.4C0.2,3,0,3.3,0,3.6s0.2,0.6,0.4,0.6h4.4h0.8h4.4c0.2,0,0.4-0.3,0.4-0.6
								S10.2,3,9.9,3z"/>
							
								<g id="Group_2_" transform="translate(12.931981, 3.181981) rotate(45.000000) translate(-12.931981, -3.181981) translate(10.681981, 0.931981)">
								<path id="Shape-Copy-2_2_" class="st0" d="M3.8,1.7H2.1H1.8H0.1C0.1,1.7,0,1.8,0,2s0.1,0.2,0.1,0.2h1.7h0.3h1.7
									C3.9,2.2,4,2.1,4,2S3.9,1.7,3.8,1.7z"/>
								<path id="Shape-Copy-3_2_" class="st0" d="M2.2,3.8V2.1V1.8V0.1C2.2,0.1,2.1,0,2,0C1.8,0,1.7,0.1,1.7,0.1v1.7v0.3v1.7
									C1.7,3.9,1.8,4,2,4S2.2,3.9,2.2,3.8z"/>
							</g>
						</g>
					</g>
				</g>
			</g>
		</g>
	</g>
</g>
</svg>
