<?xml version="1.0" encoding="UTF-8"?>
<svg width="21px" height="28px" viewBox="0 0 21 28" version="1.1" xmlns="http://www.w3.org/2000/svg" xmlns:xlink="http://www.w3.org/1999/xlink">
    <!-- Generator: Sketch 45.2 (43514) - http://www.bohemiancoding.com/sketch -->
    <title>login</title>
    <desc>Created with Sketch.</desc>
    <defs></defs>
    <g id="Symbols" stroke="none" stroke-width="1" fill="none" fill-rule="evenodd">
        <g id="login" stroke="#FFFFFF">
            <g id="Page-1" transform="translate(0.000000, 13.000000)" stroke-linecap="round" stroke-linejoin="round">
                <path d="M9.5082803,1.11915 L0.7456,1.11915" id="Stroke-1"></path>
            </g>
            <path d="M7.12132034,15.1213203 L9.12132034,15.1213203 L7.12132034,15.1213203 L7.12132034,13.1213203 L7.12132034,15.1213203 Z" id="Combined-Shape" transform="translate(8.121320, 14.121320) scale(-1, 1) rotate(-315.000000) translate(-8.121320, -14.121320) "></path>
            <g id="046-login" transform="translate(12.000000, 14.000000) scale(-1, 1) translate(-12.000000, -14.000000) translate(4.000000, 1.000000)" stroke-linecap="round">
                <path d="M15.4735036,15.9814011 C15.4735036,19.5758928 15.4735036,21.5881265 15.4735036,22.0181022 L15.4735036,25.0436496 C15.4735036,25.3455474 15.2134307,25.5913869 14.8937956,25.5913869 L0.915182482,25.5913869 C0.595766423,25.5913869 0.335766423,25.3455474 0.335766423,25.0436496 L0.335766423,0.91270073 C0.335766423,0.610729927 0.595766423,0.364963504 0.915182482,0.364963504 L14.8940876,0.364963504 C15.2134307,0.364963504 15.4735036,0.610729927 15.4735036,0.91270073 L15.4735036,3.93817518 C15.4735036,4.36815085 15.4735036,6.06279195 15.4735036,9.02209849" id="Fill-1"></path>
            </g>
        </g>
    </g>
</svg>