<?xml version="1.0" encoding="UTF-8"?>
<svg width="30px" height="30px" viewBox="0 0 30 30" version="1.1" xmlns="http://www.w3.org/2000/svg" xmlns:xlink="http://www.w3.org/1999/xlink">
    <!-- Generator: Sketch 45.2 (43514) - http://www.bohemiancoding.com/sketch -->
    <title>+ copy</title>
    <desc>Created with Sketch.</desc>
    <defs></defs>
    <g id="Page-1" stroke="none" stroke-width="1" fill="none" fill-rule="evenodd">
        <g id="2-copy" transform="translate(-253.000000, -290.000000)" fill="#000000">
            <g id="menu" transform="translate(130.000000, 290.000000)">
                <g id="-" transform="translate(123.000000, 0.000000)">
                    <g id="Shape">
                        <path d="M15,0 C6.72923077,0 0,6.72865385 0,15 C0,23.2713462 6.72923077,30 15,30 C23.2707692,30 30,23.2713462 30,15 C30,6.72865385 23.2707692,0 15,0 Z M15,28.8461538 C7.36557692,28.8461538 1.15384615,22.6344231 1.15384615,15 C1.15384615,7.36557692 7.36557692,1.15384615 15,1.15384615 C22.6344231,1.15384615 28.8461538,7.36557692 28.8461538,15 C28.8461538,22.6344231 22.6344231,28.8461538 15,28.8461538 Z" fill-rule="nonzero"></path>
                        <path d="M22.2115385,14.4230769 L15.5769231,14.4230769 L14.4230769,14.4230769 L7.78846154,14.4230769 C7.47,14.4230769 7.21153846,14.6809615 7.21153846,15 C7.21153846,15.3190385 7.47,15.5769231 7.78846154,15.5769231 L14.4230769,15.5769231 L15.5769231,15.5769231 L22.2115385,15.5769231 C22.53,15.5769231 22.7884615,15.3190385 22.7884615,15 C22.7884615,14.6809615 22.53,14.4230769 22.2115385,14.4230769 Z" fill-rule="nonzero"></path>
                    </g>
                </g>
            </g>
        </g>
    </g>
</svg>