<?xml version="1.0" encoding="UTF-8"?>
<svg width="29px" height="29px" viewBox="0 0 29 29" version="1.1" xmlns="http://www.w3.org/2000/svg" xmlns:xlink="http://www.w3.org/1999/xlink">
    <!-- Generator: Sketch 45.2 (43514) - http://www.bohemiancoding.com/sketch -->
    <title>settings</title>
    <desc>Created with Sketch.</desc>
    <defs></defs>
    <g id="Symbols" stroke="none" stroke-width="1" fill="none" fill-rule="evenodd">
        <g id="Header" transform="translate(-1113.000000, -27.000000)" stroke="#FFFFFF">
            <g id="Group-2">
                <g transform="translate(1074.000000, 28.000000)">
                    <g id="settings" transform="translate(40.000000, 0.000000)">
                        <g id="094-settings">
                            <path d="M13.3488394,9.2759781 C11.0305839,9.2759781 9.14445985,11.1621022 9.14445985,13.4803577 C9.14445985,15.7986131 11.0305839,17.6847372 13.3488394,17.6847372 C15.6670949,17.6847372 17.553219,15.7986131 17.553219,13.4803577 C17.553219,11.1621022 15.6673577,9.2759781 13.3488394,9.2759781 Z" id="Fill-1"></path>
                            <path d="M26.2861095,16.6143942 L23.5641679,14.5288905 C23.6408978,13.8075109 23.6360365,13.1089927 23.5641679,12.431562 L26.2861095,10.3460584 C26.7079927,10.0227153 26.8221679,9.43535036 26.5519708,8.97753285 L23.9162847,4.51162774 C23.6535109,4.06668613 23.1066131,3.87860584 22.6257372,4.06793431 L19.3965109,5.33975912 C18.806781,4.91761314 18.1755328,4.55991241 17.5095985,4.27066423 L17.0248467,0.926474453 C16.9499562,0.409664234 16.5069854,0.0262773723 15.9845255,0.0262773723 L10.7131533,0.0262773723 C10.1909562,0.0262773723 9.74805109,0.409664234 9.67309489,0.926737226 L9.18834307,4.27066423 C8.52240876,4.56017518 7.89116058,4.91761314 7.30149635,5.33975912 L4.07220438,4.06793431 C3.59132847,3.87860584 3.04423358,4.06668613 2.78172263,4.51162774 L0.146036496,8.97753285 C-0.124226277,9.43535036 -0.00998540146,10.0227153 0.41189781,10.3460584 L3.13351095,12.431562 C3.0570438,13.1528759 3.06164234,13.8516569 3.13351095,14.5288905 L0.41189781,16.6143942 C-0.00998540146,16.9377372 -0.124226277,17.5251022 0.146036496,17.9829197 L2.78172263,22.4490219 C3.04423358,22.8940292 3.59132847,23.0821095 4.07194161,22.8927153 L7.30149635,21.6209562 C7.89089781,22.0428394 8.52221168,22.4005401 9.18808029,22.6899854 L9.67309489,26.0339781 C9.74805109,26.5507883 10.1909562,26.934438 10.7131533,26.934438 L15.9845255,26.934438 C16.5069854,26.934438 16.9499562,26.5507883 17.0248467,26.0339781 L17.5095985,22.6899854 C18.1755328,22.4008029 18.806781,22.0431022 19.3965109,21.6209562 L22.6257372,22.8927153 C23.1066131,23.0821095 23.6535109,22.8940292 23.9162847,22.4490219 L26.5519708,17.9831825 C26.8221679,17.525365 26.7079927,16.9377372 26.2861095,16.6143942 Z" id="Fill-3"></path>
                        </g>
                    </g>
                </g>
            </g>
        </g>
    </g>
</svg>