<?xml version="1.0" encoding="UTF-8"?>
<svg width="199px" height="35px" viewBox="0 0 199 35" version="1.1" xmlns="http://www.w3.org/2000/svg" xmlns:xlink="http://www.w3.org/1999/xlink">
    <!-- Generator: Sketch 45.2 (43514) - http://www.bohemiancoding.com/sketch -->
    <title>logo</title>
    <desc>Created with Sketch.</desc>
    <defs>
        <polygon id="path-1" points="48.1679021 0.00381078342 48.1679021 33.6636837 0.231726947 33.6636837 0.231726947 0.00381078342"></polygon>
        <polygon id="path-3" points="0.0248642888 34.7082731 34.7331374 34.7082731 34.7331374 2.99209251e-05 0.0248642888 2.99209251e-05"></polygon>
        <polygon id="path-5" points="0.264171848 34.7082731 34.972445 34.7082731 34.972445 2.99209251e-05 0.264171848 2.99209251e-05 0.264171848 34.7082731"></polygon>
    </defs>
    <g id="Page-1" stroke="none" stroke-width="1" fill="none" fill-rule="evenodd">
        <g id="login-page" transform="translate(-621.000000, -335.000000)">
            <g id="logo" transform="translate(621.000000, 335.000000)">
                <g id="Group-3" transform="translate(149.903835, 0.598419)">
                    <mask id="mask-2" fill="white">
                        <use xlink:href="#path-1"></use>
                    </mask>
                    <g id="Clip-2"></g>
                    <path d="M44.5771218,0.149664467 C42.4524369,-0.388912185 40.2385876,0.598478344 39.2511971,2.54333848 L26.115911,27.4375482 C25.7568599,28.1556504 25.0088368,28.6044642 24.2006726,28.5745433 C23.3931068,28.5745433 22.6450837,28.1556504 22.2860326,27.4375482 L9.18066737,2.5732594 C7.95390944,0.269348168 5.11142156,-0.628279585 2.7775894,0.598478344 C1.22170129,1.40634332 0.234310765,3.02207328 0.234310765,4.78740786 L0.234310765,31.2973475 C0.174468914,32.5537272 1.16156023,33.6009595 2.4185383,33.6611006 C3.67521715,33.7209424 4.72244953,32.7335519 4.78229138,31.4768731 L4.78229138,31.2973475 L4.78229138,4.75748693 C4.78229138,4.66772416 4.75207125,4.51811953 4.90167587,4.48819861 C5.0512805,4.45827768 5.08150063,4.60788231 5.14134248,4.66772416 L18.2467077,29.5320129 C19.9821213,32.8233147 24.0214462,34.0799935 27.312748,32.3445799 C28.509585,31.7162405 29.4969755,30.7288499 30.1253149,29.5320129 L43.2306801,4.66772416 C43.2606011,4.57796138 43.3204429,4.45827768 43.4700475,4.48819861 C43.6196522,4.51811953 43.5897312,4.66772416 43.5897312,4.75748693 L43.5897312,31.2674266 C43.5598103,32.5241054 44.5469016,33.5713378 45.8038797,33.6311797 C47.0605586,33.6611006 48.1077909,32.7033318 48.1676328,31.4469521 L48.1676328,31.2674266 L48.1676328,4.75748693 C48.1975537,2.5732594 46.7015075,0.658320194 44.5771218,0.149664467" id="Fill-1" fill="#00B420" mask="url(#mask-2)"></path>
                </g>
                <path d="M38.3834304,1.07709346 C37.2763562,0.508595885 35.8999937,0.927488837 35.3314961,2.03456307 L20.969452,29.2626049 C20.7001637,29.8011816 20.2812707,30.1003908 19.8623778,30.1003908 C19.4434848,30.1003908 19.0245919,29.8011816 18.7553036,29.2626049 L4.39325951,2.03456307 C3.91452471,0.867646986 2.56808308,0.329070334 1.401167,0.807805136 C0.234250923,1.28653994 -0.304325729,2.63298157 0.174409072,3.79989765 C0.234250923,3.91958135 0.294092773,4.03926505 0.353934623,4.15894875 L14.7159787,31.3869906 C15.793132,33.4216135 17.7080712,34.6483714 19.8623778,34.6483714 C22.0166844,34.6483714 23.9316236,33.4216135 25.0087769,31.3869906 L39.370821,4.15894875 C39.9393185,3.05187452 39.5204256,1.67551196 38.3834304,1.07709346" id="Fill-4" fill="#00B420"></path>
                <g id="Group-8" transform="translate(38.298784, 0.000000)">
                    <mask id="mask-4" fill="white">
                        <use xlink:href="#path-3"></use>
                    </mask>
                    <g id="Clip-7"></g>
                    <path d="M4.78229138,15.0801762 C6.03897024,8.10860063 12.7113365,3.50077816 19.6829121,4.78737794 C24.919074,5.74484754 29.0481616,9.84401428 29.9757103,15.0801762 L4.78229138,15.0801762 Z M17.3790009,2.99209251e-05 C7.80430482,2.99209251e-05 0.0248642888,7.77947045 0.0248642888,17.3541665 C0.0248642888,26.9288625 7.80430482,34.708303 17.3790009,34.708303 C22.8545301,34.708303 28.0308502,32.1048834 31.292231,27.7068066 C32.100096,26.749337 31.9804123,25.3131326 31.0229427,24.5052676 C30.0654731,23.6974026 28.6292687,23.8170863 27.8214037,24.7742567 C27.7914828,24.8044768 27.7615619,24.8643187 27.7316409,24.8942396 L27.6717991,24.9840024 C23.4529486,30.6689782 15.4341407,31.8358942 9.74916495,27.6167446 C7.14604446,25.6718845 5.38070988,22.8293966 4.78229138,19.6281568 L32.4591471,19.6281568 C33.715826,19.6281568 34.7331374,18.6108453 34.7331374,17.3541665 C34.7331374,7.77947045 26.9836178,2.99209251e-05 17.3790009,2.99209251e-05 L17.3790009,2.99209251e-05 Z" id="Fill-6" fill="#00B420" mask="url(#mask-4)"></path>
                </g>
                <g id="Group-11" transform="translate(75.101522, 0.000000)">
                    <mask id="mask-6" fill="white">
                        <use xlink:href="#path-5"></use>
                    </mask>
                    <g id="Clip-10"></g>
                    <path d="M5.02159894,15.0801762 C6.27827779,8.10860063 12.9506441,3.50077816 19.9222196,4.78737794 C25.1583815,5.74484754 29.2874692,9.84401428 30.2150179,15.0801762 L5.02159894,15.0801762 Z M34.972445,17.3541665 C34.972445,7.77947045 27.1930044,2.99209251e-05 17.6183084,2.99209251e-05 C8.04361238,2.99209251e-05 0.264171848,7.77947045 0.264171848,17.3541665 C0.264171848,26.9288625 8.04361238,34.708303 17.6183084,34.708303 C23.0938377,34.708303 28.2701578,32.1048834 31.5315386,27.7068066 C32.2496408,26.6894951 32.0102734,25.2532907 30.9929619,24.5351885 C30.0055714,23.8170863 28.6292089,24.0262336 27.8811857,24.9840024 C23.6623353,30.6689782 15.6435274,31.8358942 9.95855158,27.6167446 C7.3554311,25.6718845 5.59009652,22.8293966 4.99167802,19.6281568 L32.6984547,19.6281568 C33.9551335,19.6281568 34.972445,18.6108453 34.972445,17.3541665 L34.972445,17.3541665 Z" id="Fill-9" fill="#00B420" mask="url(#mask-6)"></path>
                </g>
                <path d="M133.053357,3.97948304 C132.006125,2.00470198 130.120807,0.807864978 128.056563,0.807864978 C125.99172,0.807864978 124.107001,2.00470198 123.059768,3.97948304 L108.87695,30.8185529 C108.24891,31.9256271 108.667803,33.3019896 109.744957,33.9303291 C110.852031,34.5586685 112.228094,34.1397755 112.856733,33.0626222 L112.916275,32.9728595 L116.805996,25.582391 L133.532092,25.582391 C134.758551,25.582391 135.776161,24.5650795 135.776161,23.3383216 C135.776161,22.1115637 134.758551,21.0942522 133.532092,21.0942522 L119.170048,21.0942522 L127.069172,6.13378965 C127.30854,5.65505485 127.667591,5.38576652 128.056563,5.38576652 C128.445535,5.38576652 128.774366,5.65505485 129.043953,6.13378965 L143.226472,32.9728595 C143.854811,34.0799337 145.230874,34.4689057 146.337949,33.8405663 C147.385181,33.2421478 147.804373,31.9256271 147.265797,30.8484738 L133.053357,3.97948304 Z" id="Fill-12" fill="#00B420"></path>
            </g>
        </g>
    </g>
</svg>