<?xml version="1.0" encoding="UTF-8"?>
<svg width="16px" height="21px" viewBox="0 0 16 21" version="1.1" xmlns="http://www.w3.org/2000/svg" xmlns:xlink="http://www.w3.org/1999/xlink">
    <!-- Generator: Sketch 45.2 (43514) - http://www.bohemiancoding.com/sketch -->
    <title>password</title>
    <desc>Created with Sketch.</desc>
    <defs>
        <polygon id="path-1" points="15.6009069 10.4006026 15.6009069 0 0 0 0 10.4006026 0 20.8012052 15.6009069 20.8012052"></polygon>
    </defs>
    <g id="Page-1" stroke="none" stroke-width="1" fill="none" fill-rule="evenodd">
        <g id="login-page" transform="translate(-539.000000, -492.000000)">
            <g id="password" transform="translate(539.000000, 492.000000)">
                <mask id="mask-2" fill="white">
                    <use xlink:href="#path-1"></use>
                </mask>
                <g id="Clip-2"></g>
                <path d="M11.2673081,7.8004494 L4.3335988,7.8004494 L4.3335988,6.06700175 C4.3335988,4.15540313 5.88885483,2.60014709 7.80045346,2.60014709 C9.71205209,2.60014709 11.2673081,4.15540313 11.2673081,6.06700175 L11.2673081,7.8004494 Z M9.09796951,16.85316 C9.11153905,16.9754484 9.07221177,17.0981836 8.99010387,17.1900421 C8.90799597,17.28186 8.79033913,17.3343505 8.6671976,17.3343505 L6.93374995,17.3343505 C6.81060842,17.3343505 6.69295158,17.28186 6.61084368,17.1900421 C6.52873578,17.0982243 6.48936787,16.975489 6.50293741,16.85316 L6.77631892,14.3947984 C6.33238374,14.0718921 6.06704644,13.5610843 6.06704644,13.0007517 C6.06704644,12.0447493 6.84445101,11.2673041 7.80049409,11.2673041 C8.75653716,11.2673041 9.53394173,12.0447086 9.53394173,13.0007517 C9.53394173,13.5610843 9.26860443,14.0718921 8.82466925,14.3947984 L9.09796951,16.85316 Z M15.1675349,7.8004494 L13.8674593,7.8004494 L13.8674593,6.06700175 C13.8674593,2.7216229 11.1458729,-4.06273618e-06 7.80045346,-4.06273618e-06 C4.45503398,-4.06273618e-06 1.73344764,2.7216229 1.73344764,6.06700175 L1.73344764,7.8004494 L0.433372068,7.8004494 C0.193833143,7.8004494 0,7.99428254 0,8.23382147 L0,19.0677981 C0,20.0238006 0.777404567,20.8012052 1.73344764,20.8012052 L13.8674999,20.8012052 C14.8235024,20.8012052 15.6009069,20.0238006 15.6009069,19.0677575 L15.6009069,8.23382147 C15.6009069,7.99428254 15.4070738,7.8004494 15.1675349,7.8004494 L15.1675349,7.8004494 Z" id="Fill-1" fill="#FFFFFF" mask="url(#mask-2)"></path>
            </g>
        </g>
    </g>
</svg>