<?xml version="1.0" encoding="UTF-8"?>
<svg width="20px" height="20px" viewBox="0 0 20 20" version="1.1" xmlns="http://www.w3.org/2000/svg" xmlns:xlink="http://www.w3.org/1999/xlink">
    <!-- Generator: Sketch 45.2 (43514) - http://www.bohemiancoding.com/sketch -->
    <title>user</title>
    <desc>Created with Sketch.</desc>
    <defs>
        <polygon id="path-1" points="7.8125e-06 20 19.9998516 20 19.9998516 0 7.8125e-06 0"></polygon>
    </defs>
    <g id="Page-1" stroke="none" stroke-width="1" fill="none" fill-rule="evenodd">
        <g id="login-page" transform="translate(-537.000000, -433.000000)">
            <g id="user" transform="translate(537.000000, 433.000000)">
                <mask id="mask-2" fill="white">
                    <use xlink:href="#path-1"></use>
                </mask>
                <g id="Clip-2"></g>
                <path d="M10.0302422,14.7176875 L10.0302422,14.7175312 L9.9691875,14.7175312 L5.69766406,14.7175312 C5.69766406,11.5937812 8.44114062,11.5945234 9.04996875,10.7777266 L9.11961719,10.4052656 C8.26430469,9.97175 7.66047656,8.92667187 7.66047656,7.70440625 C7.66047656,6.09413281 8.7079375,4.78850781 9.99977344,4.78850781 C11.2916094,4.78850781 12.3390703,6.09413281 12.3390703,7.70440625 C12.3390703,8.91628125 11.7459844,9.95483594 10.9020391,10.3951875 L10.981375,10.8184687 C11.6493437,11.5956562 14.3015312,11.6463203 14.3015312,14.7176875 L10.0302422,14.7176875 Z M9.99977344,-7.8125e-06 C4.47711719,-7.8125e-06 7.8125e-06,4.47725781 7.8125e-06,9.99991406 C7.8125e-06,15.5224531 4.47711719,20.0000312 9.99977344,20.0000312 C15.5224297,20.0000312 19.9998516,15.5224531 19.9998516,9.99991406 C19.9998516,4.47710156 15.5224297,-7.8125e-06 9.99977344,-7.8125e-06 L9.99977344,-7.8125e-06 Z" id="Fill-1" fill="#FFFFFF" mask="url(#mask-2)"></path>
            </g>
        </g>
    </g>
</svg>