<?xml version="1.0" encoding="UTF-8"?>
<svg width="40px" height="40px" viewBox="0 0 40 40" version="1.1" xmlns="http://www.w3.org/2000/svg" xmlns:xlink="http://www.w3.org/1999/xlink">
    <!-- Generator: Sketch 45.2 (43514) - http://www.bohemiancoding.com/sketch -->
    <title>remove active</title>
    <desc>Created with Sketch.</desc>
    <defs></defs>
    <g id="Symbols" stroke="none" stroke-width="1" fill="none" fill-rule="evenodd">
        <g id="remove-active" fill-rule="nonzero" fill="#7ED321">
            <g id="-">
                <path d="M20,0 C8.97230769,0 0,8.97153846 0,20 C0,31.0284615 8.97230769,40 20,40 C31.0276923,40 40,31.0284615 40,20 C40,8.97153846 31.0276923,0 20,0 Z M20,38.4615385 C9.82076923,38.4615385 1.53846154,30.1792308 1.53846154,20 C1.53846154,9.82076923 9.82076923,1.53846154 20,1.53846154 C30.1792308,1.53846154 38.4615385,9.82076923 38.4615385,20 C38.4615385,30.1792308 30.1792308,38.4615385 20,38.4615385 Z" id="Shape"></path>
                <path d="M29.6153846,19.2307692 L20.7692308,19.2307692 L19.2307692,19.2307692 L10.3846154,19.2307692 C9.96,19.2307692 9.61538462,19.5746154 9.61538462,20 C9.61538462,20.4253846 9.96,20.7692308 10.3846154,20.7692308 L19.2307692,20.7692308 L20.7692308,20.7692308 L29.6153846,20.7692308 C30.04,20.7692308 30.3846154,20.4253846 30.3846154,20 C30.3846154,19.5746154 30.04,19.2307692 29.6153846,19.2307692 Z" id="Shape"></path>
            </g>
        </g>
    </g>
</svg>