<?xml version="1.0" encoding="UTF-8"?>
<svg width="15px" height="15px" viewBox="0 0 15 15" version="1.1" xmlns="http://www.w3.org/2000/svg" xmlns:xlink="http://www.w3.org/1999/xlink">
    <!-- Generator: Sketch 45.2 (43514) - http://www.bohemiancoding.com/sketch -->
    <title>VM</title>
    <desc>Created with Sketch.</desc>
    <defs></defs>
    <g id="Symbols" stroke="none" stroke-width="1" fill="none" fill-rule="evenodd">
        <g id="Test-VM-1" transform="translate(1.000000, -3.000000)">
            <g id="VM" transform="translate(0.000000, 4.000000)">
                <g id="Page-1" transform="translate(0.000000, -0.019965)">
                    <path d="M12.2285081,13.4555825 L1.22707437,13.4555825 C0.549436284,13.4555825 0,12.9061462 0,12.2285081 L0,1.22707437 C0,0.549436284 0.549436284,0 1.22707437,0 L12.2285081,0 C12.9061462,0 13.4555825,0.549436284 13.4555825,1.22707437 L13.4555825,12.2285081 C13.4555825,12.9061462 12.9061462,13.4555825 12.2285081,13.4555825 Z" id="Stroke-1" stroke="#7ED321" stroke-width="0.5"></path>
                    <path d="M2.09128969,4.3467915 L3.68028347,8.38351188 L5.26251558,4.3467915 L5.90487477,4.3467915 L3.94398882,9.14758123 L3.41657812,9.14758123 L1.4489305,4.3467915 L2.09128969,4.3467915 Z M10.7056645,9.14758123 L10.7056645,5.43542129 L9.10990904,8.28208675 L8.76506358,8.28208675 L7.16254645,5.43542129 L7.16254645,9.14758123 L6.55399563,9.14758123 L6.55399563,4.3467915 L7.19635482,4.3467915 L8.93410547,7.46392399 L10.6786178,4.3467915 L11.3142153,4.3467915 L11.3142153,9.14758123 L10.7056645,9.14758123 Z" id="VM" fill="#7ED321"></path>
                </g>
            </g>
        </g>
    </g>
</svg>